<svg width="24" height="24" viewBox="0 0 24 24" fill="none" xmlns="http://www.w3.org/2000/svg">
<path d="M12.067 5.30482C12.067 5.30482 19.9536 11.8483 19.9536 12.5154V18.7895C19.9536 19.4566 19.4129 19.9977 18.7456 19.9977H14.5073V16.2519C14.5073 15.3807 13.8011 14.6747 12.93 14.6747H11.1556C10.2847 14.6747 9.57827 15.3807 9.57827 16.2519V19.9977H5.25681C4.58976 19.9977 4.04895 19.4566 4.04895 18.7895V12.5154C4.049 11.8483 12.067 5.30482 12.067 5.30482Z" fill="#E5AA17"/>
<path d="M2.28754 12.1392L11.4745 4.20211C11.8215 3.90236 12.3455 3.94048 12.6452 4.28733C12.9449 4.6346 12.9066 5.15863 12.5596 5.45817L3.37275 13.3952C3.02574 13.6948 2.50176 13.6564 2.20217 13.3096C1.90242 12.9625 1.94064 12.4387 2.28754 12.1392Z" fill="#C69422"/>
<path d="M11.355 4.28729C11.6545 3.94044 12.1784 3.90232 12.5254 4.20207L21.7126 12.1392C22.0595 12.4388 22.0977 12.9626 21.7981 13.3097C21.4985 13.6565 20.9745 13.6948 20.6275 13.3952L11.4404 5.45823C11.0934 5.15859 11.0552 4.6346 11.355 4.28729Z" fill="#C69422"/>
</svg>
