<svg width="24" height="24" viewBox="0 0 24 24" fill="none" xmlns="http://www.w3.org/2000/svg">
<path d="M10.2422 12.375H13.7578V13.5469H10.2422V12.375Z" fill="#797979"/>
<path d="M18.2257 13.5469H14.9297V14.1328C14.9297 14.4566 14.6675 14.7188 14.3438 14.7188H9.65625C9.33246 14.7188 9.07031 14.4566 9.07031 14.1328V13.5469H5.77426C5.01666 13.5469 4.34665 13.0639 4.10678 12.3453L2 6.02385V18.8203C2 19.7896 2.78857 20.5781 3.75781 20.5781H20.2422C21.2114 20.5781 22 19.7896 22 18.8203V6.02431L19.8931 12.3453C19.6534 13.0639 18.9833 13.5469 18.2257 13.5469Z" fill="#B66233"/>
<path d="M14.3434 3H9.65591C8.68668 3 7.8981 3.78857 7.8981 4.75781V5.34375H3.00781L5.21774 11.9745C5.29785 12.2142 5.52155 12.375 5.77393 12.375H9.06998V11.7891C9.06998 11.4653 9.33212 11.2031 9.65591 11.2031H14.3434C14.6672 11.2031 14.9294 11.4653 14.9294 11.7891V12.375H18.2254C18.4778 12.375 18.7015 12.2142 18.7816 11.9745L20.9917 5.34375H16.1012V4.75781C16.1012 3.78857 15.3127 3 14.3434 3ZM9.06998 5.34375V4.75781C9.06998 4.43448 9.33258 4.17187 9.65591 4.17187H14.3434C14.6667 4.17187 14.9294 4.43448 14.9294 4.75781V5.34375H9.06998Z" fill="#D38458"/>
</svg>
