<svg width="16" height="16" viewBox="0 0 16 16" fill="none" xmlns="http://www.w3.org/2000/svg">
<path d="M3.80366 2.47337L2.86366 1.52671C0.666992 3.70871 0.666992 5.29004 0.666992 7.33337H1.33366L2.00033 7.29137C2.00033 5.33937 2.00033 4.26404 3.80366 2.47337ZM13.1363 1.52671L12.1977 2.47337C14.0003 4.26404 14.0003 5.33937 14.0003 7.33337L15.3337 7.29137C15.3337 5.29004 15.3337 3.70871 13.1363 1.52671ZM8.00033 14.6667C8.87432 14.6667 9.60499 14.1107 9.87899 13.3334H6.12166C6.39566 14.1107 7.12633 14.6667 8.00033 14.6667ZM12.667 9.72404V6.66671C12.667 4.52204 11.2103 2.71537 9.23699 2.17204C9.04166 1.68004 8.56432 1.33337 8.00033 1.33337C7.43633 1.33337 6.95899 1.68004 6.76366 2.17204C4.78966 2.71537 3.33366 4.52204 3.33366 6.66671V9.72404L2.19566 10.862C2.07033 10.9867 2.00033 11.156 2.00033 11.3334V12C2.00033 12.3687 2.29899 12.6667 2.66699 12.6667H13.3337C13.7023 12.6667 14.0003 12.3687 14.0003 12V11.3334C14.0003 11.156 13.9303 10.9867 13.805 10.862L12.667 9.72404Z" fill="#B7B7BF"/>
</svg>
