<svg width="24" height="24" viewBox="0 0 24 24" fill="none" xmlns="http://www.w3.org/2000/svg">
<path d="M5.705 3.71L4.295 2.29C1 5.563 1 7.935 1 11H2L3 10.937C3 8.009 3 6.396 5.705 3.71ZM19.704 2.29L18.296 3.71C21 6.396 21 8.009 21 11L23 10.937C23 7.935 23 5.563 19.704 2.29ZM12 22C13.311 22 14.407 21.166 14.818 20H9.182C9.593 21.166 10.689 22 12 22ZM19 14.586V10C19 6.783 16.815 4.073 13.855 3.258C13.562 2.52 12.846 2 12 2C11.154 2 10.438 2.52 10.145 3.258C7.184 4.073 5 6.783 5 10V14.586L3.293 16.293C3.105 16.48 3 16.734 3 17V18C3 18.553 3.448 19 4 19H20C20.553 19 21 18.553 21 18V17C21 16.734 20.895 16.48 20.707 16.293L19 14.586Z" fill="#E44233"/>
</svg>
