<svg width="768" height="830" viewBox="0 0 768 830" fill="none" xmlns="http://www.w3.org/2000/svg">
<path fill-rule="evenodd" clip-rule="evenodd" d="M203.727 164.724C230.602 165.211 257.873 170.673 279.14 187.12C300.041 203.286 315.6 227.354 318.655 253.609C321.464 277.74 302.51 297.542 294.668 320.535C286.996 343.032 290.488 370.354 273.258 386.722C255.317 403.765 228.013 411.648 203.727 406.926C180.823 402.473 169.23 378.089 151.401 363.029C135.359 349.478 115.35 341.24 104.603 323.195C91.8167 301.728 81.7534 277.262 85.6121 252.573C89.8038 225.752 104.527 200.544 126.302 184.349C148.205 168.058 176.44 164.229 203.727 164.724Z" fill="#F0F0F0"/>
<path fill-rule="evenodd" clip-rule="evenodd" d="M689.056 699.325C681.071 724.991 668.199 749.646 646.46 765.463C625.094 781.009 597.634 789.214 571.572 784.804C547.619 780.751 533.909 757.015 514.027 743.055C494.574 729.396 467.366 725.106 456.471 703.987C445.125 681.994 445.195 653.576 456.521 631.58C467.203 610.835 493.856 606.525 513.302 593.621C530.799 582.009 544.305 565.103 564.636 559.832C588.822 553.56 615.126 550.742 637.751 561.353C662.329 572.879 682.412 594.065 691.87 619.501C701.384 645.086 697.163 673.266 689.056 699.325Z" fill="#F0F0F0"/>
<path fill-rule="evenodd" clip-rule="evenodd" d="M448.191 283.611C504.415 314.512 584.169 292.327 627.337 339.759C673.946 390.972 700.13 470.465 677.694 535.782C655.559 600.222 577.146 621.182 518.64 656.204C474.017 682.915 429.277 704.941 378.208 715.053C323.833 725.82 263.413 744.831 215.9 716.147C168.761 687.688 158.49 625.447 142.604 572.814C129.105 528.09 123.542 482.598 131.536 436.629C139.57 390.435 163.399 351.501 188.028 311.618C221.938 256.705 237.529 167.78 301.833 160.858C366.673 153.877 390.983 252.168 448.191 283.611Z" fill="#ABE5FF"/>
<path d="M438.126 657.321C448.71 657.321 457.29 648.752 457.29 638.181C457.29 627.61 448.71 619.041 438.126 619.041C427.542 619.041 418.962 627.61 418.962 638.181C418.962 648.752 427.542 657.321 438.126 657.321Z" fill="#C9C9C9"/>
<path d="M506.339 238.782V404.485H603.364V238.782H506.339ZM601.756 296.738H554.181V240.389H601.756V296.738ZM552.573 240.389V296.738H507.813V240.389H552.573ZM507.813 298.21H552.573V403.012H507.813V298.21ZM554.181 403.012V298.21H601.756V403.012H554.181Z" fill="white"/>
<path d="M446.837 621.182C445.765 622.789 441.209 629.481 435.848 632.961C431.426 635.772 422.715 637.512 418.962 638.181C418.962 641.661 419.901 645.007 421.509 647.818L453.672 627.339C452.064 624.662 449.651 622.655 446.837 621.182Z" fill="white"/>
<path d="M430.353 655.581C432.497 656.518 434.91 657.053 437.322 657.187V728.795C424.189 728.795 247.024 728.661 184.708 728.795C184.038 728.795 182.296 728.795 182.028 728.661C182.028 728.661 182.028 728.527 182.028 728.394C182.028 727.323 183.1 725.449 184.038 723.575C185.914 720.095 188.058 716.213 186.584 713.135C185.646 711.127 183.234 709.789 179.348 709.253C164.874 706.978 145.978 715.812 132.711 723.575L132.041 723.977C127.217 726.787 116.093 733.346 110.599 729.464C109.259 728.527 110.733 725.717 111.537 723.977C111.805 723.441 111.939 723.04 112.073 722.772C113.011 720.497 113.815 715.946 111.269 713.269C108.723 710.592 103.764 710.458 96.5276 712.867C92.7753 714.072 88.0848 716.883 83.5284 719.426C78.972 722.103 74.4155 724.78 71.0652 725.717C61.0143 728.795 28.4492 730.134 28.1812 730.134V731.606C29.5213 731.606 61.2823 730.133 71.4673 727.189C74.9516 726.118 79.508 723.441 84.3325 720.764C88.7549 718.221 93.4454 715.41 97.0637 714.34C103.63 712.198 108.187 712.198 110.197 714.34C112.207 716.481 111.403 720.497 110.733 722.237C110.599 722.504 110.465 722.906 110.197 723.441C109.125 725.717 107.383 729.197 109.795 730.803C116.228 735.354 127.485 728.661 132.979 725.449L133.649 725.047C144.37 718.757 164.606 708.584 179.348 710.86C182.698 711.395 184.708 712.332 185.512 713.938C186.718 716.347 184.708 719.827 183.1 722.906C181.894 725.047 180.822 726.921 180.822 728.527C180.822 728.929 180.822 729.464 181.224 730C181.76 730.669 182.832 730.669 184.976 730.669C249.436 730.535 436.518 730.669 438.394 730.669H439.198V657.187C448.981 656.786 456.888 649.156 457.424 639.385C454.342 639.787 446.837 641.259 442.549 643.936C437.456 647.149 432.095 653.439 430.353 655.581Z" fill="white"/>
<path d="M422.447 649.023C424.189 651.432 426.333 653.439 428.879 654.912C430.354 653.038 436.116 646.212 441.343 642.732C446.033 639.653 454.074 638.315 457.156 637.913C457.156 634.433 456.218 631.355 454.61 628.544L422.447 649.023Z" fill="white"/>
<path d="M852.627 732.543L828.773 688.239H864.286V616.096H785.889C788.435 612.884 794.332 603.648 792.858 592.138C792.054 586.114 788.301 579.422 784.683 572.998C782.003 568.179 779.322 563.628 778.384 559.747C777.982 558.14 778.25 552.92 778.384 551.047L778.518 550.244H771.148C771.014 549.307 770.88 547.299 770.746 544.622C771.282 544.756 772.086 544.756 773.024 544.756C775.436 544.756 778.652 544.22 781.467 541.811C783.879 539.67 787.363 534.583 787.095 531.103C786.961 528.025 785.621 524.947 784.549 522.136C783.611 519.86 782.673 517.719 782.673 516.113C782.673 511.562 784.817 508.617 786.425 506.342L786.961 505.673C788.971 502.862 792.188 495.634 791.384 491.485C791.116 490.28 790.58 489.477 789.775 488.942C787.899 487.737 785.621 487.469 783.477 488.406C780.529 489.611 776.508 493.493 774.364 504.602C772.756 512.633 771.014 526.954 769.942 535.922C769.138 524.813 768.199 510.491 768.199 503.799C768.199 492.823 771.148 475.289 772.086 470.203C772.22 470.203 772.354 470.337 772.354 470.337C776.642 472.345 780.931 473.817 784.415 474.219C785.353 474.352 786.157 474.352 786.827 474.352C789.239 474.352 790.848 473.683 791.518 472.345C792.322 470.605 791.25 468.329 788.435 465.652C785.889 463.243 782.137 460.7 777.848 458.692C769.808 454.811 760.427 452.803 758.551 456.551C756.942 460.031 763.241 465.519 770.478 469.4C769.674 473.951 766.457 492.288 766.457 503.799C766.457 508.483 766.993 517.05 767.529 525.616C764.983 513.971 760.829 496.169 757.88 486.265C753.592 471.943 747.964 467.526 744.077 466.322C741.263 465.385 738.315 465.92 736.17 467.794C735.098 468.597 734.562 469.936 734.428 471.676C734.026 477.029 738.717 485.596 742.201 489.209C744.747 491.886 747.293 494.563 747.963 501.39C748.232 503.665 747.829 505.405 747.293 507.546C746.757 509.956 746.221 512.633 746.355 516.514C746.623 521.199 751.582 529.23 754.932 531.773C760.561 535.788 766.457 537.528 768.467 537.93C768.601 540.071 769.406 549.44 769.406 550.511H760.159V551.314C760.159 555.196 760.159 563.227 759.891 564.967C759.355 568.045 756.808 572.194 754.262 576.477C750.51 582.768 746.355 589.728 745.819 596.421C745.283 604.318 750.912 613.152 753.19 616.23H714.594V688.373H748.5L728.8 732.677H678.679V204.384L437.322 142.814V619.041C427.673 619.442 419.766 626.938 419.096 636.575C422.983 635.905 431.023 634.299 435.044 631.622C440.002 628.544 444.291 622.253 445.497 620.513C443.487 619.71 441.208 619.175 438.93 619.041V144.822L677.607 205.588V734.015H744.479C744.613 734.015 756.674 732.81 771.014 726.653C775.302 724.78 778.786 722.103 781.735 719.827C785.353 717.016 788.167 714.741 791.116 715.143C795.404 715.678 795.672 719.426 795.672 724.244C795.672 725.449 795.672 726.52 795.806 727.323C796.61 732.543 802.641 733.881 805.589 733.881H885.059V732.409H852.627V732.543ZM760.293 457.086C760.695 456.283 761.767 455.882 763.643 455.882C766.859 455.882 771.818 457.086 777.58 459.897C781.735 461.905 785.353 464.314 787.765 466.589C789.909 468.731 790.982 470.471 790.446 471.542C789.909 472.612 787.899 472.88 784.951 472.479C781.601 472.077 777.446 470.605 773.292 468.731C764.447 464.582 759.355 459.228 760.293 457.086ZM756.272 530.167C753.458 528.159 748.5 520.53 748.232 516.113C748.098 512.365 748.634 509.822 749.17 507.546C749.572 505.405 750.108 503.531 749.84 500.988C749.17 493.626 746.221 490.548 743.675 487.871C740.057 483.989 736.036 475.959 736.304 471.408C736.438 470.203 736.84 469.266 737.51 468.731C739.387 467.259 741.665 466.857 744.077 467.526C747.025 468.463 752.654 472.211 756.942 486.533C761.097 500.319 767.395 529.497 768.735 535.922C768.735 535.922 768.735 535.922 768.735 536.056C766.457 535.387 761.231 533.78 756.272 530.167ZM776.24 504.736C778.384 493.76 782.271 490.548 784.415 489.611C786.023 488.942 787.765 489.076 789.239 490.013C789.641 490.28 790.043 490.816 790.177 491.619C790.848 494.965 788.033 501.657 786.023 504.602L785.487 505.271C783.745 507.68 781.333 510.893 781.333 515.979C781.333 517.853 782.271 520.262 783.343 522.671C784.415 525.348 785.621 528.293 785.889 531.103C786.023 534.048 782.941 538.599 780.797 540.607C777.312 543.685 772.756 543.284 771.014 543.016C771.416 538.733 774.096 515.577 776.24 504.736ZM747.695 596.153C748.097 589.862 752.252 583.036 755.87 576.879C758.551 572.462 761.097 568.179 761.767 564.833C762.169 562.825 762.169 554.259 762.169 551.582H777.044C776.91 553.456 776.642 558.14 777.178 559.88C778.25 563.896 780.797 568.581 783.611 573.533C787.095 579.824 790.848 586.248 791.518 592.004C793.126 604.318 785.487 614.088 784.013 615.828H755.334C754.128 614.222 747.159 604.451 747.695 596.153ZM716.47 686.633V617.435H754.664H784.683H862.812V686.633H827.969H749.572H716.47ZM750.644 688.239H827.165L837.082 706.576L742.871 705.64L750.644 688.239ZM805.589 732.543C805.455 732.543 798.084 732.543 797.28 727.189C797.146 726.52 797.146 725.449 797.28 724.378C797.414 720.497 797.548 714.473 791.384 713.67C787.765 713.269 784.549 715.678 780.797 718.623C777.848 720.898 774.498 723.441 770.344 725.315C756.272 731.338 744.479 732.543 744.345 732.543H730.81L742.067 707.246L837.752 708.183L850.885 732.543H805.589Z" fill="white"/>
<path d="M355.441 686.767C355.441 686.767 354.1 699.75 355.173 703.632C355.977 706.041 357.719 710.458 358.523 712.733C359.595 715.544 361.337 719.961 361.873 724.378C362.141 727.055 360.533 735.22 360.533 735.22L237.643 778.988C237.643 778.988 234.829 759.446 243.808 744.723C249.571 735.22 266.59 720.898 273.157 711.261C275.033 708.45 277.713 698.679 277.713 698.679L355.441 686.767Z" fill="#03A0E8"/>
<path d="M533.409 468.329C533.409 468.329 537.832 462.708 538.636 460.432C542.522 450.394 552.975 430.986 552.975 430.986L655.227 461.905C655.227 461.905 647.588 473.148 633.383 479.171C626.816 481.982 612.477 482.517 605.776 485.06C601.89 486.533 591.437 493.626 591.437 493.626L559.81 487.871L533.409 468.329Z" fill="#03A0E8"/>
<path d="M277.713 687.436V698.68L351.42 687.436L278.919 683.019L277.713 687.436Z" fill="#000850"/>
<path d="M528.317 475.423L533.409 468.329L574.819 488.808H557.666L528.317 475.423Z" fill="#000850"/>
<path d="M414.272 409.437C414.272 409.437 422.045 415.995 424.055 418.539C426.601 421.885 431.024 429.916 434.106 433.128C436.518 435.537 439.6 436.876 445.229 440.757C451.26 444.906 457.558 449.323 461.042 452.803C465.465 457.086 471.897 465.786 478.598 474.754C486.907 485.997 499.102 493.627 499.102 493.627L523.224 473.951L607.652 498.311C607.652 498.311 584.468 533.513 563.83 543.819C540.378 555.598 532.739 561.621 512.235 563.494C489.989 565.636 465.197 564.03 434.776 551.582C427.137 548.504 410.922 540.473 397.654 530.836C379.161 517.184 364.955 502.059 364.955 502.059L361.739 687.303H269.404C269.404 687.303 269.002 648.621 271.28 610.876C273.425 575.407 276.775 538.331 279.321 515.577C286.96 446.914 319.123 384.006 319.123 384.006L383.047 390.163L414.272 409.437Z" fill="#E44233"/>
<path d="M524.564 537.796C519.472 537.796 507.143 537.26 502.854 532.308C494.948 523.207 482.082 509.554 467.341 494.831C463.857 491.351 460.238 488.273 457.022 485.596C454.476 483.454 452.198 481.58 450.455 479.84C448.445 477.833 446.569 474.219 444.693 470.605C442.951 467.393 441.343 464.046 439.6 462.306C435.714 458.023 430.085 454.543 424.591 451.197C419.23 447.851 414.004 444.639 411.19 441.025C409.18 438.348 407.169 434.332 405.159 430.049C402.211 423.892 398.995 416.932 394.706 413.318C393.098 411.98 390.284 410.508 387.067 408.768C384.521 407.429 381.573 405.823 379.027 404.083C372.326 399.666 366.697 394.714 366.563 394.58L367.502 393.643C367.502 393.643 373.13 398.595 379.697 403.012C382.243 404.618 385.191 406.225 387.737 407.563C391.088 409.303 393.902 410.909 395.51 412.382C400.067 416.263 403.283 423.357 406.365 429.514C408.375 433.663 410.252 437.679 412.128 440.222C414.808 443.568 419.767 446.78 425.127 449.992C430.622 453.472 436.384 456.952 440.404 461.369C442.147 463.243 443.889 466.589 445.631 470.069C447.373 473.549 449.249 477.163 451.125 478.903C452.868 480.643 455.012 482.383 457.558 484.525C460.774 487.202 464.393 490.28 468.011 493.76C482.752 508.483 495.618 522.136 503.524 531.237C508.081 536.591 523.894 536.323 526.039 536.19C527.915 534.45 542.656 520.797 549.625 514.239C559.006 505.271 569.995 487.336 570.129 487.202L571.335 487.871C571.201 488.005 560.212 506.208 550.563 515.176C543.192 522.136 526.977 537.127 526.843 537.26L526.709 537.394H526.441C526.575 537.796 525.771 537.796 524.564 537.796Z" fill="white"/>
<path d="M337.751 392.305C337.751 392.305 343.782 396.32 345.926 397.391C350.884 399.8 359.997 398.729 359.997 398.729L369.378 395.383C369.378 395.383 373.934 398.194 375.543 398.997C379.563 401.138 387.068 399.666 387.068 399.666C387.068 399.666 388.81 402.745 390.954 403.815C392.562 404.618 397.923 404.217 397.923 404.217C397.923 404.217 397.923 407.563 402.881 409.303C405.561 410.24 414.272 409.303 414.272 409.303C414.272 409.303 410.252 403.682 408.376 402.075C405.963 399.934 399.665 396.588 396.985 394.312C394.84 392.572 392.026 388.825 388.81 385.345C385.593 381.731 381.841 378.518 381.841 378.518L337.751 392.305Z" fill="#FDCB42"/>
<path d="M379.027 375.306L381.841 378.652C381.841 378.652 375.408 385.345 372.728 386.951C369.11 388.958 356.513 391.501 356.513 391.501L379.027 375.306Z" fill="#101147"/>
<path d="M324.349 288.306L318.051 298.344L310.144 285.227L312.02 282.818L324.349 288.306Z" fill="#101147"/>
<path d="M334.401 281.48C334.401 281.48 340.565 284.424 345.926 281.078C351.956 277.33 353.028 271.173 353.028 271.173C353.028 271.173 373.264 272.378 380.099 272.913C389.748 273.716 396.315 273.716 402.077 272.378C403.819 271.976 409.85 269.567 406.902 262.339C404.891 257.387 398.325 257.387 395.644 258.592C389.48 261.403 374.202 265.819 374.202 265.819C374.202 265.819 397.789 255.379 403.685 249.356C410.788 242.262 408.242 234.767 404.757 232.492C401.675 230.484 395.912 228.476 380.233 238.782C372.594 243.735 350.214 259.127 350.214 259.127C350.214 259.127 344.854 252.97 338.823 251.766C334.401 250.829 329.576 253.372 329.576 253.372L334.401 281.48Z" fill="#000850"/>
<path d="M347.132 301.423L334.267 278.535C334.267 278.535 338.287 281.881 341.771 281.212C345.256 280.543 347.4 278.401 348.472 276.661C349.41 275.055 350.08 271.039 347.534 269.166C345.926 267.961 340.029 267.827 340.029 267.827C340.029 267.827 346.596 263.276 345.39 259.663C344.317 256.584 334.803 258.324 334.803 258.324C334.803 258.324 333.06 255.379 332.122 254.71C331.586 254.309 329.576 253.639 329.576 253.639C329.576 253.639 313.629 262.072 309.34 266.221C304.918 270.638 305.99 277.598 305.99 277.598C305.99 277.598 306.392 282.818 309.474 284.692C312.824 286.7 324.35 288.44 324.35 288.44L316.979 300.218L329.844 328.727L351.554 312.8L347.132 301.423Z" fill="#FFA79C"/>
<path d="M189.399 207.195C189.399 207.195 238.447 252.702 260.292 264.347C279.991 274.787 303.444 281.346 303.444 281.346C303.444 281.346 309.206 283.086 311.216 285.361C317.381 292.723 326.226 313.737 329.174 316.815C330.916 318.555 338.689 319.358 338.689 319.358C338.689 319.358 340.431 305.973 347.266 301.423C352.492 297.809 360.935 294.329 366.028 293.66C379.161 291.92 404.891 294.195 418.963 297.006C442.549 301.69 488.783 315.477 512.504 319.76C528.987 322.704 580.85 326.318 580.85 326.318L578.974 371.558C578.974 371.558 543.863 372.227 532.069 371.424C517.596 370.354 490.123 364.331 490.123 364.331C490.123 364.331 438.26 349.474 421.777 344.387C406.231 339.703 373.666 343.718 373.666 343.718L379.295 375.44C379.295 375.44 375.006 389.494 351.286 392.572C331.184 395.249 319.525 384.14 319.525 384.14L309.34 331.404C309.34 331.404 279.991 323.507 269.941 320.83C257.611 317.484 240.324 309.052 231.077 303.698C221.026 297.943 201.996 284.692 193.285 276.929C184.038 268.63 160.184 239.586 160.184 239.586L189.399 207.195Z" fill="white"/>
<path d="M189.265 207.195C189.265 207.195 173.183 172.127 163.668 163.962C160.854 161.553 157.906 163.159 157.906 163.159C157.906 163.159 150.401 149.239 146.381 150.577C143.164 151.648 144.773 164.23 144.773 164.23C144.773 164.23 135.928 147.901 129.093 150.444C124.269 152.317 131.639 166.639 131.639 166.639C131.639 166.639 124.939 162.758 123.465 165.301C121.99 167.71 125.341 176.678 125.341 176.678C125.341 176.678 119.578 176.276 119.578 179.488C119.578 183.102 130.835 195.684 134.454 200.904C141.02 210.541 160.05 239.586 160.05 239.586L189.265 207.195Z" fill="#FFA79C"/>
<path d="M189.265 207.195L155.896 233.295L160.05 239.586L189.265 207.195Z" fill="#000850"/>
<path d="M160.318 211.478C160.184 211.21 156.968 204.785 157.236 198.093C157.236 196.755 157.638 194.881 158.04 193.007C158.71 189.795 159.514 186.047 158.71 184.173C152.679 168.111 157.102 163.025 157.37 162.758L158.308 163.694C158.308 163.694 154.287 168.513 159.916 183.638C160.854 185.913 159.916 189.795 159.246 193.275C158.844 195.148 158.442 196.888 158.442 198.093C158.174 204.384 161.39 210.675 161.39 210.808L160.318 211.478Z" fill="#5F000F"/>
<path d="M150.133 180.961C148.659 178.284 147.587 175.473 146.649 172.662C145.711 169.851 144.907 166.907 144.371 163.828C145.845 166.505 146.917 169.316 147.855 172.127C148.927 175.071 149.731 177.882 150.133 180.961Z" fill="#5F000F"/>
<path d="M131.639 166.773C133.515 170.253 135.258 173.599 137 177.079C137.938 178.819 138.876 180.559 139.546 182.299C140.35 184.039 141.02 185.913 141.422 187.787H141.288C140.082 186.181 139.144 184.441 138.206 182.701C137.268 180.961 136.598 179.221 135.794 177.347C134.587 174.001 132.979 170.387 131.639 166.773Z" fill="#5F000F"/>
<path d="M125.341 176.678C127.217 179.221 129.093 181.898 130.835 184.441C131.773 185.779 132.711 186.984 133.516 188.456C134.32 189.795 134.99 191.267 135.526 192.873L135.392 193.007C134.186 191.802 133.248 190.598 132.309 189.259C131.371 187.921 130.701 186.582 129.897 185.11C128.289 182.299 126.815 179.622 125.341 176.678Z" fill="#5F000F"/>
<path d="M153.174 183.65L136.244 196.126L137.039 197.203L153.97 184.727L153.174 183.65Z" fill="#5F000F"/>
<path d="M580.582 326.318C580.582 326.318 617.033 313.87 629.496 315.209C633.115 315.61 634.053 318.823 634.053 318.823C634.053 318.823 649.33 314.673 651.072 318.555C652.547 321.634 642.228 329.129 642.228 329.129C642.228 329.129 660.185 324.31 663 331.003C665.01 335.821 649.598 340.372 649.598 340.372C649.598 340.372 656.969 342.647 656.299 345.324C655.495 348.135 646.784 351.749 646.784 351.749C646.784 351.749 650.938 355.631 648.66 357.772C645.98 360.315 629.094 360.717 622.93 361.788C611.405 363.661 584.736 370.755 584.736 370.755L580.582 326.318Z" fill="#FFA79C"/>
<path d="M580.582 326.318L584.87 370.621L578.706 371.558L580.582 326.318Z" fill="#000850"/>
<path d="M597.467 350.143L597.065 348.804C597.199 348.804 603.9 346.663 608.322 342.246C609.126 341.309 610.198 339.837 611.271 338.364C613.281 335.42 615.559 332.207 617.837 331.27C632.847 324.98 633.517 318.823 633.517 318.689L634.857 318.823C634.857 319.09 634.321 325.783 618.373 332.475C616.497 333.278 614.353 336.357 612.477 339.167C611.405 340.774 610.332 342.246 609.394 343.317C604.704 347.867 597.735 350.009 597.467 350.143Z" fill="#5F000F"/>
<path d="M626.548 336.491C629.094 334.75 631.775 333.412 634.455 332.074C637.135 330.869 639.949 329.664 642.898 328.861C640.351 330.601 637.671 331.94 634.991 333.278C632.311 334.617 629.496 335.687 626.548 336.491Z" fill="#5F000F"/>
<path d="M649.732 340.238C646.114 341.71 642.496 343.049 638.743 344.387C636.867 345.057 635.125 345.86 633.249 346.395C631.373 346.931 629.497 347.332 627.486 347.6V347.466C629.228 346.529 630.971 345.726 632.847 345.057C634.723 344.387 636.599 343.852 638.475 343.317C642.228 342.246 645.846 341.175 649.732 340.238Z" fill="#5F000F"/>
<path d="M646.784 351.749C643.702 352.552 640.619 353.355 637.537 354.024C635.929 354.426 634.455 354.827 632.847 355.095C631.239 355.363 629.63 355.497 628.022 355.363V355.229C629.496 354.56 631.105 354.158 632.579 353.757C634.187 353.355 635.661 353.221 637.269 352.954C640.485 352.552 643.568 352.017 646.784 351.749Z" fill="#5F000F"/>
<path d="M622.597 336.38L621.267 336.545L623.862 357.399L625.192 357.234L622.597 336.38Z" fill="#5F000F"/>
<path d="M324.751 271.843C321.669 271.843 320.061 270.103 320.061 270.103L320.999 269.166C320.999 269.166 322.339 270.504 324.751 270.504C328.102 270.504 329.576 266.489 329.576 266.489L330.782 266.89C330.916 267.158 329.174 271.843 324.751 271.843Z" fill="#5F000F"/>
<path d="M334.936 264.749C334.936 264.749 333.596 263.009 331.988 262.206C331.452 261.938 329.576 261.403 328.906 261.135L329.308 259.796C329.576 259.93 331.854 260.466 332.658 260.867C334.534 261.804 336.009 263.812 336.143 263.812L334.936 264.749Z" fill="#5F000F"/>
<path d="M321.803 266.489L316.845 262.875L326.628 257.655L327.164 258.859L319.257 263.009L322.607 265.418L321.803 266.489Z" fill="#5F000F"/>
<path d="M338.153 273.716C339.225 273.181 340.431 273.181 341.637 273.315C342.307 273.449 342.709 273.716 343.245 273.984C343.781 274.252 344.183 274.653 344.585 275.055C343.915 275.055 343.379 275.055 342.843 274.921C342.307 274.787 341.771 274.653 341.369 274.519C340.431 274.519 339.359 274.252 338.153 273.716Z" fill="#5F000F"/>
<path d="M347.132 301.423C345.657 302.627 344.451 303.966 343.379 305.572C342.307 307.044 341.503 308.784 340.967 310.524C340.431 312.264 339.895 314.004 339.627 315.878C339.493 316.815 339.359 317.752 339.359 318.555C339.225 319.492 339.359 320.295 339.359 321.232C339.761 324.846 341.637 328.058 343.915 330.869C345.121 332.341 346.327 333.68 347.668 334.884C349.008 336.089 350.482 337.294 351.956 338.364C348.606 336.624 345.523 334.349 342.977 331.538C340.431 328.727 338.421 325.247 337.885 321.366C337.751 320.429 337.751 319.358 337.885 318.421C338.019 317.484 338.019 316.547 338.153 315.61C338.421 313.737 338.957 311.863 339.761 310.123C341.369 306.509 343.781 303.297 347.132 301.423Z" fill="#6B6B6B"/>
<path d="M373.8 344.923C372.326 345.057 370.718 345.057 369.11 344.923C367.501 344.789 366.027 344.521 364.553 343.986C366.027 344.254 367.635 344.387 369.11 344.387C369.914 344.387 370.584 344.387 371.388 344.12C372.192 343.986 372.862 343.718 373.666 343.584L373.8 344.923Z" fill="#6B6B6B"/>
<path d="M309.072 331.404C308.268 330.735 307.866 330.066 307.464 329.263C307.062 328.46 306.794 327.657 306.526 326.72C306.392 325.783 306.392 324.98 306.392 324.177C306.392 323.374 306.526 322.437 306.928 321.5H307.062L307.866 326.452C308 327.255 308.268 328.058 308.536 328.861C308.67 329.798 308.938 330.601 309.072 331.404Z" fill="#6B6B6B"/>
<path d="M274.229 571.927L275.837 645.007C275.837 645.007 283.207 642.866 285.62 650.361C287.898 657.053 281.063 666.423 281.063 666.423C281.063 666.423 291.784 663.478 293.794 665.887C296.475 668.966 293.124 674.855 293.124 674.855C293.124 674.855 296.207 675.658 297.011 678.067C297.413 679.138 296.207 682.618 296.207 682.618C296.207 682.618 302.103 680.61 305.186 683.823C305.856 684.492 306.258 687.303 306.258 687.303H269.538C269.538 687.303 269.538 672.178 269.806 655.983C270.074 643.401 270.61 630.15 270.878 623.19C271.28 610.475 274.229 571.927 274.229 571.927Z" fill="#FDCB42"/>
<path d="M345.122 687.436H343.781C343.781 686.499 346.998 599.901 346.462 568.848C346.328 563.628 340.565 560.55 340.565 560.55L340.163 560.416V560.014C340.163 559.747 341.503 534.182 342.441 525.616C343.245 517.987 347.266 495.366 347.266 495.099L348.606 495.366C348.606 495.634 344.586 518.254 343.781 525.75C342.843 533.647 341.637 556.267 341.503 559.613C342.977 560.416 347.668 563.628 347.802 568.848C348.338 599.901 345.122 686.633 345.122 687.436Z" fill="white"/>
<path d="M364.955 502.193C364.955 502.193 351.554 488.406 347.4 483.588C341.771 477.163 326.226 456.819 326.226 456.819C326.226 456.819 339.761 481.58 344.585 489.611C349.544 497.91 364.553 522.404 364.553 522.404L364.955 502.193Z" fill="#000850"/>
<path d="M514.246 516.113C514.246 515.979 510.627 508.483 508.081 504.468C505.937 501.122 498.834 494.028 498.7 494.028L499.638 493.091C499.906 493.359 506.875 500.319 509.153 503.799C511.833 507.814 515.318 515.31 515.452 515.577L514.246 516.113Z" fill="#050000"/>
<path d="M544.8 446.78C544.8 446.78 547.615 440.891 548.553 439.017C549.625 437.009 552.841 431.12 552.841 431.12L571.469 436.742C571.469 436.742 565.974 442.765 560.346 445.174C554.181 447.583 544.8 446.78 544.8 446.78Z" fill="#E44233"/>
<path d="M638.207 476.762C638.207 476.762 640.485 475.423 642.898 473.817C644.908 472.479 646.918 470.739 648.124 469.668C649.196 468.731 649.732 468.196 651.206 466.723C653.351 464.448 655.093 462.039 655.093 462.039L635.661 456.149C635.661 456.149 634.723 462.976 635.259 466.857C635.929 472.077 638.207 476.762 638.207 476.762Z" fill="#E44233"/>
<path d="M655.227 461.905L658.979 456.819L554.583 424.294L552.975 430.986L655.227 461.905Z" fill="white"/>
<path d="M632.177 479.573L630.033 472.077L625.61 473.282L627.352 480.777C627.352 480.777 629.094 480.376 629.764 480.242C630.569 480.108 632.177 479.573 632.177 479.573Z" fill="white"/>
<path d="M624.672 481.446L622.93 474.085L618.373 475.022L619.981 482.249L623.198 481.714L624.672 481.446Z" fill="white"/>
<path d="M617.435 482.517L616.095 475.825L611.539 476.762L612.745 483.32L617.435 482.517Z" fill="white"/>
<path d="M620.651 504.334C618.373 504.334 615.693 503.665 612.879 501.122C609.528 498.177 608.858 491.485 608.322 487.603L608.188 486.399C608.188 486.131 608.054 485.73 608.054 485.462C602.292 484.525 593.715 483.053 590.767 479.037C588.354 475.825 587.684 471.943 588.622 468.463C589.293 466.188 590.633 464.448 592.241 463.779C595.859 462.44 599.477 463.779 603.096 468.062C605.91 471.274 608.322 479.439 609.126 484.391C610.065 484.525 610.869 484.659 611.673 484.793C614.889 485.462 622.26 487.871 625.074 490.414C629.496 494.162 629.898 497.24 629.496 499.114C628.96 501.657 626.682 503.263 624.806 503.799C623.868 503.933 622.394 504.334 620.651 504.334ZM609.528 485.596C609.528 485.863 609.528 485.997 609.662 486.131L609.796 487.336C610.199 491.083 610.869 497.374 613.817 500.051C617.703 503.531 621.322 503.13 624.672 502.326C625.878 501.925 627.888 500.72 628.29 498.713C628.826 496.571 627.486 493.894 624.404 491.351C621.858 489.21 615.157 486.8 611.539 486.131C610.869 485.863 610.198 485.729 609.528 485.596ZM592.777 464.983C591.571 465.385 590.499 466.857 589.963 468.731C589.561 470.203 588.89 474.085 591.839 478.234C594.385 481.714 602.292 483.186 607.786 483.99C606.848 478.903 604.436 471.542 602.158 468.731C598.807 464.983 595.859 463.779 592.777 464.983Z" fill="#050000"/>
<path d="M290.846 723.575C289.372 723.575 287.63 723.307 285.754 722.37C281.599 720.497 278.919 714.473 277.311 710.86L276.775 709.789C276.641 709.521 276.507 709.253 276.373 708.852C270.61 709.789 262.033 710.993 257.879 708.183C254.663 705.907 252.652 702.427 252.518 698.68C252.384 696.27 253.188 694.129 254.529 693.058C257.611 690.649 261.363 690.783 266.188 693.727C269.806 695.869 274.63 702.963 277.043 707.38C277.981 707.246 278.785 707.112 279.589 706.978C282.939 706.577 290.578 706.577 294.062 708.049C299.423 710.324 300.763 713.001 300.897 715.009C301.165 717.552 299.557 719.827 297.949 720.898C296.609 721.969 294.196 723.575 290.846 723.575ZM277.713 708.852C277.847 708.986 277.847 709.253 277.981 709.387L278.517 710.458C280.125 713.938 282.671 719.694 286.29 721.3C291.114 723.441 294.33 721.969 297.279 720.095C298.351 719.426 299.825 717.552 299.691 715.41C299.423 713.135 297.413 711.127 293.66 709.655C290.578 708.317 283.475 708.183 279.857 708.718C279.053 708.584 278.383 708.718 277.713 708.852ZM255.333 694.396C254.395 695.2 253.725 696.94 253.859 698.947C253.859 700.553 254.529 704.435 258.549 707.38C262.167 709.923 269.94 708.852 275.569 707.915C273.022 703.364 268.466 697.073 265.384 695.2C261.229 692.523 257.879 692.255 255.333 694.396Z" fill="#050000"/>
<path d="M356.647 707.647C356.647 707.647 345.524 714.34 340.163 722.638C334.133 731.74 332.256 745.392 332.256 745.392L360.533 735.354C360.533 735.354 362.141 727.189 361.873 724.512C361.605 720.095 356.647 707.647 356.647 707.647Z" fill="#E44233"/>
<path d="M240.189 752.486C240.189 752.486 250.106 755.966 254.529 759.714C258.147 762.658 262.57 770.288 262.57 770.288L237.643 778.988C237.643 778.988 237.241 775.508 237.241 771.894C237.241 769.083 237.509 766.406 237.643 764.131C237.777 761.855 238.313 758.911 238.983 756.501C239.519 754.092 240.189 752.486 240.189 752.486Z" fill="#E44233"/>
<path d="M251.312 735.22L258.147 740.975L262.436 737.094L255.065 731.07C255.065 731.07 253.457 732.677 252.921 733.212C252.653 733.881 251.312 735.22 251.312 735.22Z" fill="white"/>
<path d="M258.013 728.126L265.116 734.818L269.136 730.937L261.766 724.378L258.013 728.126Z" fill="white"/>
<path d="M265.116 720.764L272.62 728.26L276.775 724.11L268.734 716.883L265.116 720.764Z" fill="white"/>
<path d="M237.643 778.988L239.921 785.011L360.801 742.715L360.533 735.354L237.643 778.988Z" fill="white"/>
<path d="M318.587 297.407C319.793 299.816 320.999 302.092 322.339 304.501C323.545 306.777 324.886 309.186 326.36 311.327C327.03 312.398 327.834 313.469 328.638 314.54C329.04 315.075 329.442 315.61 329.844 316.012C330.246 316.413 330.782 316.815 331.184 317.083C333.328 318.421 336.009 318.957 338.555 319.09V319.224C337.215 319.492 335.875 319.492 334.534 319.358C333.194 319.224 331.854 318.823 330.514 318.153C329.844 317.752 329.308 317.35 328.772 316.815C328.236 316.28 327.968 315.744 327.566 315.209C326.762 314.138 326.092 312.933 325.422 311.729C322.741 307.312 320.597 302.36 318.587 297.407Z" fill="#6B6B6B"/>
<path d="M506.693 612.79C506.693 612.79 520.094 599.806 525.187 596.326C534.3 590.17 542.608 588.43 550.247 589.366C553.597 589.768 560.566 592.043 560.164 600.074C559.762 607.703 546.897 616.805 546.897 616.805L506.693 612.79Z" fill="#000850"/>
<path d="M609.481 689.618C610.955 692.027 613.233 697.381 614.171 700.191C615.779 704.742 615.377 712.104 615.377 712.104C615.377 712.104 623.552 708.891 626.366 709.025C629.851 709.293 629.716 712.639 629.046 713.71C626.768 717.458 621.14 723.213 615.109 729.236C610.821 733.385 608.409 738.204 603.986 742.889C599.296 747.841 590.317 751.589 590.317 751.589V762.564C590.317 762.564 590.317 766.579 586.296 768.587C581.338 771.13 578.122 766.713 578.122 766.713C578.122 766.713 574.369 759.753 569.947 752.793C566.865 747.975 560.968 741.55 559.494 738.739C557.618 735.125 555.339 725.087 555.339 725.087C555.339 725.087 527.733 695.239 515.672 686.405C503.477 677.571 474.932 669.674 474.932 669.674C474.932 669.674 468.097 667.533 468.097 662.179C468.097 657.494 475.736 654.55 475.736 654.55C475.736 654.55 472.118 650.668 471.447 647.054C471.045 645.047 470.911 638.89 470.911 638.89L484.179 630.19C484.179 630.19 491.147 618.01 497.312 613.86C502.538 610.246 518.62 611.585 518.62 611.585L562.174 641.834L566.999 645.984C566.999 645.984 585.492 661.108 591.121 666.73C595.945 672.084 605.594 683.327 609.481 689.618Z" fill="white"/>
<path d="M566.73 645.984C566.73 645.984 585.894 661.242 593.131 669.139C597.553 673.958 609.615 689.751 609.615 689.751C609.615 689.751 602.11 688.814 599.162 686.004C596.213 683.193 593.265 675.028 588.843 673.422C584.956 671.95 575.307 673.422 570.751 672.351C567.132 671.414 561.37 669.942 561.504 660.439C561.638 653.077 566.73 645.984 566.73 645.984Z" fill="#000850"/>
<path d="M518.352 611.719C518.352 611.719 523.713 631.662 534.97 641.031C539.66 644.913 552.123 650.401 559.092 644.913C563.782 641.299 568.741 632.197 553.329 619.883C546.361 614.262 518.352 611.719 518.352 611.719Z" fill="#E44233"/>
<path d="M505.889 617.876C509.373 617.876 514.064 622.828 512.858 631.127C511.383 641.299 505.621 643.173 502.672 643.173C499.054 643.173 493.694 640.094 496.24 635.945C498.92 631.662 500.662 624.033 500.662 624.033C500.662 624.033 502.539 617.876 505.889 617.876Z" fill="#E44233"/>
<path d="M506.693 631.796C506.023 631.127 504.951 630.323 504.548 630.056C503.744 629.788 501.734 629.654 500.93 629.654V628.316C501.198 628.316 503.878 628.316 505.084 628.851C505.889 629.119 507.363 630.591 507.631 630.859L506.693 631.796Z" fill="#5F000F"/>
<path d="M495.704 628.45C495.034 628.182 493.828 627.647 493.292 627.647C492.488 627.513 491.148 628.048 490.746 628.182L490.209 626.977C490.343 626.843 492.086 626.174 493.426 626.308C494.364 626.442 496.106 627.111 496.24 627.245L495.704 628.45Z" fill="black"/>
<path d="M489.539 633.268C489.539 633.268 487.261 632.733 486.189 632.465C485.117 632.197 483.107 632.465 482.303 632.599L482.035 631.26C482.169 631.26 484.849 630.859 486.323 631.127C487.395 631.394 489.673 631.93 489.807 631.93L489.539 633.268Z" fill="black"/>
<path d="M480.292 651.471C480.158 651.337 475.736 649.464 474.262 646.653C472.922 644.244 472.788 639.291 472.788 639.023H474.128C474.128 639.023 474.262 643.842 475.468 645.984C476.808 648.393 480.828 650.267 480.962 650.267L480.292 651.471Z" fill="black"/>
<path d="M504.682 658.297C504.548 658.297 493.425 656.825 489.673 656.424C486.189 656.022 474.53 655.219 474.396 655.219L475.468 654.684L474.932 654.014C475.066 654.014 486.189 654.684 489.807 655.085C493.559 655.487 504.682 656.959 504.816 656.959L504.682 658.297Z" fill="black"/>
<path d="M555.339 725.89L555.206 725.221L554.669 724.551C554.803 724.15 557.752 713.978 560.432 711.167C567.401 703.671 578.926 705.144 579.462 705.278L579.328 706.616C579.194 706.616 567.937 705.144 561.504 712.104C558.824 714.647 555.339 725.756 555.339 725.89Z" fill="black"/>
<path d="M590.317 752.659L586.967 749.581L587.905 748.644L590.987 751.455L590.317 751.722V752.659Z" fill="black"/>
<path d="M615.779 718.528L615.377 712.104L616.717 711.702L617.119 718.395L615.779 718.528Z" fill="black"/>
<path d="M470.777 639.024C470.777 639.024 478.014 639.827 480.56 636.882C485.519 631.26 479.89 628.851 479.89 628.851C479.89 628.851 471.179 627.379 469.437 630.056C465.551 635.811 470.777 639.024 470.777 639.024Z" fill="#000850"/>
<path d="M239.921 785.011C247.56 783.538 255.065 783.003 262.57 782.601C270.074 782.2 277.579 782.334 284.816 782.334C286.558 782.334 288.3 782.334 290.176 782.2L295.671 781.932C299.423 781.798 303.041 781.664 306.794 781.531C314.298 781.397 321.803 781.531 329.442 782.601C322.205 785.546 314.969 787.42 307.598 789.026C303.845 789.829 300.227 790.365 296.475 790.9C294.599 791.168 292.722 791.301 290.712 791.569C288.702 791.703 286.692 791.837 284.816 791.837C277.177 791.837 269.672 791.168 262.167 790.097C254.663 788.892 247.292 787.42 239.921 785.011Z" fill="#000850"/>
<path d="M589.915 779.318C592.327 778.248 594.739 777.846 597.151 777.445C599.563 777.177 601.976 777.043 604.254 777.043C606.398 777.043 608.81 776.909 611.223 777.043C613.635 777.177 616.047 777.579 618.593 778.382C616.315 779.854 614.037 780.791 611.759 781.46C609.346 782.129 607.068 782.665 604.388 782.665C601.842 782.665 599.429 782.397 597.151 781.862C594.605 781.46 592.193 780.657 589.915 779.318Z" fill="#000850"/>
<path d="M215.933 452.402C215.665 452.402 215.263 452.402 214.995 452.402C205.614 452 197.171 445.174 191.141 433.262C185.244 421.483 182.296 406.091 183.1 389.895C184.708 356.3 201.594 329.798 220.892 330.735C230.272 331.137 238.715 337.963 244.746 349.875C250.642 361.654 253.591 377.046 252.787 393.241C251.044 426.168 234.695 452.402 215.933 452.402ZM219.819 332.207C201.862 332.207 186.048 357.772 184.574 390.029C183.77 405.957 186.584 421.082 192.481 432.592C198.243 443.969 206.284 450.528 215.129 450.929C215.397 450.929 215.799 450.929 216.067 450.929C234.025 450.929 249.838 425.365 251.312 393.108C252.117 377.18 249.302 362.055 243.406 350.544C237.643 339.167 229.602 332.609 220.758 332.207C220.356 332.207 220.088 332.207 219.819 332.207Z" fill="white"/>
<path d="M168.895 364.197H129.093V324.444H168.895V364.197ZM130.567 362.724H167.286V326.05H130.567V362.724Z" fill="white"/>
<path d="M460.64 402.075C454.744 402.075 450.053 397.391 450.053 391.501C450.053 385.612 454.744 380.928 460.64 380.928C466.537 380.928 471.227 385.612 471.227 391.501C471.227 397.391 466.403 402.075 460.64 402.075ZM460.64 382.534C455.682 382.534 451.527 386.549 451.527 391.635C451.527 396.721 455.548 400.737 460.64 400.737C465.599 400.737 469.753 396.721 469.753 391.635C469.753 386.549 465.599 382.534 460.64 382.534Z" fill="white"/>
<path d="M466.805 415.326C466.805 411.98 463.991 409.169 460.64 409.169C457.29 409.169 454.476 411.98 454.476 415.326C454.476 417.602 455.682 419.475 457.424 420.546V428.042V428.309C457.424 428.443 458.362 430.451 460.506 430.451C461.98 430.451 463.186 428.711 463.32 428.443L463.454 428.309V420.68C465.465 419.609 466.805 417.602 466.805 415.326ZM462.114 427.908C461.712 428.443 461.176 428.979 460.64 428.979C459.702 428.979 459.166 428.175 459.032 427.908V421.215C459.568 421.349 460.104 421.483 460.64 421.483C461.176 421.483 461.578 421.349 462.114 421.349V427.908ZM460.64 419.877C458.094 419.877 455.95 417.735 455.95 415.192C455.95 412.649 458.094 410.508 460.64 410.508C463.186 410.508 465.331 412.649 465.331 415.192C465.331 417.735 463.186 419.877 460.64 419.877Z" fill="white"/>
<path d="M812.692 661.202H766.591V646.613H812.692V661.202ZM768.199 659.73H811.218V648.219H768.065V659.73H768.199Z" fill="white"/>
<path d="M666.564 195.234C664.054 195.234 661.653 195.888 659.47 196.978C659.034 195.997 658.597 195.016 658.16 194.144C640.48 200.357 590.496 218.124 573.471 224.119C577.727 244.72 595.953 260.198 617.889 260.198C639.171 260.198 656.96 245.592 661.871 225.972C663.399 226.408 664.927 226.735 666.564 226.735C675.295 226.735 682.279 219.65 682.279 211.039C682.279 202.428 675.186 195.234 666.564 195.234ZM666.564 224.119C665.145 224.119 663.726 223.901 662.417 223.465C662.962 220.74 663.181 217.906 663.181 214.963C663.181 209.513 662.198 204.281 660.452 199.485C662.308 198.504 664.381 197.959 666.564 197.959C673.767 197.959 679.66 203.845 679.66 211.039C679.66 218.233 673.767 224.119 666.564 224.119Z" fill="#FDCB42"/>
<path d="M618.38 216.786C641.979 208.872 660.068 199.358 658.782 195.534C657.497 191.71 637.324 195.026 613.726 202.94C590.127 210.853 572.038 220.368 573.324 224.192C574.609 228.015 594.782 224.7 618.38 216.786Z" fill="#041A13"/>
<path d="M660.03 209.238L640.021 225.608L640.989 226.789L660.999 210.418L660.03 209.238Z" fill="#188E6D"/>
<path d="M619.818 236.439L619.448 237.919L644.545 244.168L644.915 242.688L619.818 236.439Z" fill="#188E6D"/>
<path d="M604.746 229.217L590.003 250.442L591.258 251.312L606.001 230.087L604.746 229.217Z" fill="#188E6D"/>
<path d="M220.736 598L128 665.438L130.209 668.467L222.944 601.03L220.736 598Z" fill="#03A0E8"/>
<path d="M221.988 547.103L229.842 537.086L158.185 487.845C157.943 487.724 157.822 487.603 157.581 487.483C157.339 487.362 157.097 487.241 156.856 487.121C156.131 486.759 155.285 486.638 154.318 486.638C150.814 486.638 147.914 489.534 147.914 493.034C147.914 495.086 148.88 496.896 150.33 497.983L150.572 498.103C150.693 498.224 150.814 498.224 150.935 498.345L221.988 547.103Z" fill="#E44233"/>
<path d="M226.096 548.551C229.633 548.551 232.501 545.687 232.501 542.155C232.501 538.622 229.633 535.758 226.096 535.758C222.559 535.758 219.692 538.622 219.692 542.155C219.692 545.687 222.559 548.551 226.096 548.551Z" fill="#020202"/>
<path d="M128.579 483.138C133.318 483.138 137.159 479.301 137.159 474.569C137.159 469.836 133.318 466 128.579 466C123.841 466 120 469.836 120 474.569C120 479.301 123.841 483.138 128.579 483.138Z" fill="#FDCB42"/>
</svg>
