<svg width="181" height="40" viewBox="0 0 181 40" fill="none" xmlns="http://www.w3.org/2000/svg">
<path d="M13.2337 38.4895C12.6745 38.4895 12.1154 38.3776 11.6122 38.1258C8.34137 36.6433 5.57374 34.2937 3.53296 31.3566C1.46422 28.3636 0.262113 24.8951 0.0384657 21.2867C-0.185182 17.6783 0.569628 14.0699 2.21903 10.8532C3.86843 7.66435 6.32855 4.97904 9.34779 3.07694C10.2144 2.5175 11.2767 2.34967 12.2832 2.57344C13.2896 2.79722 14.1562 3.44057 14.7153 4.30771C15.8336 6.12589 15.2744 8.50351 13.4853 9.65036C11.6402 10.8252 10.1306 12.4476 9.12414 14.4056C8.11773 16.3636 7.64248 18.5734 7.78226 20.7832C7.92204 22.993 8.67685 25.1189 9.93486 26.937C11.1649 28.7273 12.8702 30.1818 14.8551 31.0769C16.7841 31.972 17.6507 34.2657 16.7561 36.2237C16.3368 37.1468 15.554 37.9021 14.5755 38.2377C14.1562 38.4056 13.681 38.4895 13.2337 38.4895ZM11.6681 37.958C11.6681 37.958 11.6961 37.958 11.6681 37.958C11.6961 37.958 11.6681 37.958 11.6681 37.958Z" fill="#E2E2E2"/>
<path d="M19.9994 40.0001C19.0489 40.0001 18.1263 39.9441 17.1758 39.8042C14.52 39.4406 12.004 38.5455 9.68362 37.1469C8.81699 36.6154 8.174 35.7483 7.9224 34.7413C7.67079 33.7343 7.83853 32.6714 8.36969 31.7763C9.48793 29.9581 11.8642 29.3707 13.6813 30.4616C15.0791 31.3008 16.6167 31.8602 18.2381 32.084C19.8596 32.3078 21.481 32.2238 23.0745 31.8043C25.1153 31.2448 27.2399 32.4756 27.7991 34.5455C28.0786 35.5525 27.9388 36.6434 27.4077 37.5105C26.9045 38.4056 26.0099 39.049 25.0314 39.3287C23.41 39.7763 21.7047 40.0001 19.9994 40.0001ZM25.0594 39.1049H25.0314C25.0314 39.1329 25.0594 39.1049 25.0594 39.1049ZM23.1863 32.028C23.1584 32.028 23.1584 32.028 23.1863 32.028C23.1584 32.028 23.1584 32.028 23.1863 32.028ZM13.5695 30.6574C13.5975 30.6574 13.5975 30.6574 13.5695 30.6574C13.5975 30.6574 13.5975 30.6574 13.5695 30.6574Z" fill="#03A0E8"/>
<path d="M24.3039 39.3845C23.633 39.3845 22.962 39.2167 22.375 38.881C21.4804 38.3775 20.8094 37.5104 20.5578 36.5034C19.9987 34.4614 21.2008 32.3356 23.2696 31.7482C25.534 31.1328 27.5468 29.874 29.0844 28.1398C30.622 26.4055 31.6563 24.2517 32.0477 21.958C32.4112 19.8601 34.396 18.4335 36.4648 18.7412C37.4991 18.909 38.4217 19.4685 39.0087 20.3076C39.6238 21.1468 39.8474 22.1817 39.6797 23.2167C39.0647 26.9929 37.3873 30.4894 34.8433 33.3146C32.2993 36.1677 29.0005 38.2097 25.3103 39.2167C25.0028 39.3565 24.6674 39.3845 24.3039 39.3845Z" fill="#E44233"/>
<path d="M36.0179 25.4265C35.8781 25.4265 35.7663 25.4265 35.6265 25.3986C33.5019 25.1748 31.9643 23.2727 32.16 21.1468C32.3836 18.9091 31.9643 16.6433 30.9858 14.6014C29.9794 12.5315 28.4139 10.7972 26.4849 9.5944C24.556 8.3916 22.3195 7.72027 20.0271 7.72027H19.9992C17.7347 7.72027 15.5542 8.33566 13.6252 9.51048C11.8081 10.6294 9.43182 10.0419 8.28563 8.22377C7.75447 7.35664 7.58673 6.2937 7.81038 5.28671C8.03403 4.27972 8.67701 3.41258 9.5716 2.88112C12.7027 1.00699 16.309 0 19.9992 0C20.0271 0 20.0271 0 20.0551 0C23.8012 0 27.4634 1.06294 30.6224 3.04895C33.7814 5.03496 36.3254 7.86013 37.9748 11.2447C39.5963 14.5734 40.2672 18.2657 39.9038 21.958C39.792 22.993 39.3167 23.9161 38.506 24.5874C37.7791 25.1189 36.9125 25.4265 36.0179 25.4265Z" fill="#FDCB42"/>
<path d="M67.768 10.2H71.608V22.896C71.608 24.32 71.224 25.408 70.456 26.16C69.688 26.912 68.592 27.288 67.168 27.288C66.512 27.288 65.88 27.176 65.272 26.952C64.68 26.712 64.256 26.432 64 26.112L65.248 23.184C65.712 23.52 66.176 23.688 66.64 23.688C67.392 23.688 67.768 23.192 67.768 22.2V10.2ZM81.5734 16.2H85.1734V27H81.5734V25.92C80.8534 26.832 79.8214 27.288 78.4774 27.288C77.4854 27.288 76.6294 26.92 75.9094 26.184C75.2054 25.432 74.8534 24.368 74.8534 22.992V16.2H78.4534V22.224C78.4534 22.736 78.5654 23.152 78.7894 23.472C79.0294 23.776 79.3814 23.928 79.8454 23.928C80.4694 23.928 81.0454 23.6 81.5734 22.944V16.2ZM93.196 23.808C93.196 23.52 92.524 23.216 91.18 22.896C90.7 22.784 90.268 22.656 89.884 22.512C89.516 22.368 89.132 22.168 88.732 21.912C88.332 21.656 88.02 21.32 87.796 20.904C87.588 20.472 87.484 19.984 87.484 19.44C87.484 18.352 87.876 17.496 88.66 16.872C89.444 16.232 90.46 15.912 91.708 15.912C93.612 15.912 95.124 16.4 96.244 17.376L94.9 19.92C93.908 19.248 92.916 18.912 91.924 18.912C91.684 18.912 91.484 18.96 91.324 19.056C91.164 19.152 91.084 19.264 91.084 19.392C91.084 19.584 91.276 19.744 91.66 19.872C92.06 20 92.54 20.136 93.1 20.28C93.66 20.408 94.22 20.584 94.78 20.808C95.34 21.016 95.812 21.36 96.196 21.84C96.596 22.32 96.796 22.92 96.796 23.64C96.796 24.744 96.372 25.632 95.524 26.304C94.692 26.96 93.564 27.288 92.14 27.288C91.084 27.288 90.068 27.072 89.092 26.64C88.116 26.176 87.492 25.728 87.22 25.296L88.924 22.944C89.26 23.28 89.788 23.592 90.508 23.88C91.244 24.152 91.868 24.288 92.38 24.288C92.924 24.288 93.196 24.128 93.196 23.808ZM98.5956 22.896V13.2H102.196V16.2H105.196V19.56H102.196V22.728C102.196 23.528 102.428 23.928 102.892 23.928C103.404 23.928 103.94 23.72 104.5 23.304L105.58 26.064C104.652 26.88 103.444 27.288 101.956 27.288C100.788 27.288 99.9316 26.928 99.3876 26.208C98.8596 25.472 98.5956 24.368 98.5956 22.896ZM108.873 27H108.465V10.2H108.801C109.521 10.2 110.321 10.192 111.201 10.176C111.537 10.176 111.905 10.176 112.305 10.176C112.721 10.16 113.041 10.152 113.265 10.152C113.489 10.136 113.657 10.128 113.769 10.128C116.921 10.128 119.281 10.912 120.849 12.48C122.417 14.048 123.201 16.04 123.201 18.456C123.201 20.936 122.361 22.992 120.681 24.624C119.017 26.24 116.649 27.048 113.577 27.048C112.953 27.048 112.257 27.04 111.489 27.024C110.721 27.008 109.849 27 108.873 27ZM113.721 13.728C113.097 13.728 112.625 13.752 112.305 13.8V23.4C112.753 23.432 113.217 23.448 113.697 23.448C115.393 23.448 116.721 23.008 117.681 22.128C118.641 21.248 119.121 20.024 119.121 18.456C119.121 16.968 118.633 15.808 117.657 14.976C116.681 14.144 115.369 13.728 113.721 13.728ZM126.094 25.68C125.006 24.592 124.462 23.232 124.462 21.6C124.462 19.968 125.006 18.608 126.094 17.52C127.182 16.448 128.638 15.912 130.462 15.912C132.286 15.912 133.734 16.448 134.806 17.52C135.91 18.592 136.462 19.952 136.462 21.6C136.462 23.248 135.91 24.608 134.806 25.68C133.734 26.752 132.286 27.288 130.462 27.288C128.638 27.288 127.182 26.752 126.094 25.68ZM128.302 21.6C128.302 22.272 128.502 22.832 128.902 23.28C129.318 23.712 129.838 23.928 130.462 23.928C131.102 23.928 131.622 23.72 132.022 23.304C132.422 22.872 132.622 22.304 132.622 21.6C132.622 20.928 132.414 20.376 131.998 19.944C131.598 19.496 131.086 19.272 130.462 19.272C129.838 19.272 129.318 19.488 128.902 19.92C128.502 20.336 128.302 20.896 128.302 21.6Z" fill="#03A0E8"/>
</svg>
