<svg width="181" height="45" viewBox="0 0 181 45" fill="none" xmlns="http://www.w3.org/2000/svg">
<path d="M12.1981 38.5313C11.725 38.5313 11.2519 38.4354 10.8261 38.2198C8.05835 36.95 5.71642 34.9375 3.98954 32.4219C2.239 29.8583 1.2218 26.8875 1.03255 23.7969C0.843302 20.7063 1.48201 17.6156 2.87771 14.8604C4.27341 12.1292 6.35513 9.82918 8.90997 8.20001C9.6433 7.72084 10.5422 7.57709 11.3938 7.76876C12.2455 7.96042 12.9788 8.51147 13.4519 9.25417C14.3981 10.8115 13.925 12.8479 12.411 13.8302C10.8498 14.8365 9.57233 16.2261 8.72072 17.9031C7.86911 19.5802 7.46696 21.4729 7.58524 23.3656C7.70352 25.2583 8.34222 27.0792 9.40674 28.6365C10.4476 30.1698 11.8906 31.4156 13.5702 32.1823C15.2024 32.949 15.9358 34.9135 15.1788 36.5906C14.8239 37.3813 14.1616 38.0281 13.3336 38.3156C12.9788 38.4594 12.5766 38.5313 12.1981 38.5313ZM10.8734 38.0761C10.8734 38.0761 10.8971 38.0761 10.8734 38.0761C10.8971 38.0761 10.8734 38.0761 10.8734 38.0761Z" fill="#E2E2E2"/>
<path d="M17.9229 39.825C17.1186 39.825 16.3379 39.7771 15.5336 39.6573C13.2863 39.3458 11.1573 38.5791 9.19383 37.3812C8.4605 36.926 7.91641 36.1833 7.70351 35.3208C7.4906 34.4583 7.63254 33.5479 8.082 32.7812C9.02824 31.2239 11.039 30.7208 12.5766 31.6552C13.7594 32.3739 15.0605 32.8531 16.4325 33.0448C17.8046 33.2364 19.1766 33.1646 20.525 32.8052C22.2519 32.326 24.0497 33.3802 24.5229 35.1531C24.7594 36.0156 24.6411 36.95 24.1917 37.6927C23.7659 38.4593 23.0089 39.0104 22.1809 39.25C20.8089 39.6333 19.3659 39.825 17.9229 39.825ZM22.2046 39.0583H22.1809C22.1809 39.0823 22.2046 39.0583 22.2046 39.0583ZM20.6196 32.9968C20.596 32.9968 20.596 32.9968 20.6196 32.9968C20.596 32.9968 20.596 32.9968 20.6196 32.9968ZM12.482 31.8229C12.5057 31.8229 12.5057 31.8229 12.482 31.8229C12.5057 31.8229 12.5057 31.8229 12.482 31.8229Z" fill="#03A0E8"/>
<path d="M21.5659 39.2979C20.9981 39.2979 20.4304 39.1542 19.9336 38.8667C19.1766 38.4354 18.6089 37.6927 18.396 36.8302C17.9228 35.0812 18.94 33.2604 20.6906 32.7573C22.6067 32.2302 24.3099 31.1521 25.611 29.6667C26.9121 28.1812 27.7874 26.3365 28.1185 24.3719C28.4261 22.575 30.1056 21.3531 31.8562 21.6167C32.7315 21.7604 33.5121 22.2396 34.0089 22.9583C34.5293 23.6771 34.7185 24.5635 34.5766 25.45C34.0562 28.6844 32.6368 31.6792 30.4841 34.099C28.3314 36.5427 25.5401 38.2917 22.4175 39.1542C22.1573 39.274 21.8734 39.2979 21.5659 39.2979Z" fill="#E44233"/>
<path d="M31.4777 27.3427C31.3594 27.3427 31.2648 27.3427 31.1465 27.3188C29.3487 27.1271 28.0476 25.4979 28.2132 23.6771C28.4024 21.7604 28.0476 19.8198 27.2196 18.0709C26.368 16.2979 25.0433 14.8125 23.411 13.7823C21.7788 12.7521 19.8863 12.1771 17.9465 12.1771H17.9229C16.0067 12.1771 14.1616 12.7042 12.5293 13.7104C10.9917 14.6688 8.98093 14.1656 8.01104 12.6084C7.56158 11.8656 7.41964 10.9552 7.60889 10.0927C7.79814 9.23023 8.34222 8.48752 9.09921 8.03231C11.7487 6.42711 14.8003 5.56461 17.9229 5.56461C17.9465 5.56461 17.9465 5.56461 17.9702 5.56461C21.1401 5.56461 24.239 6.47502 26.9121 8.17606C29.5852 9.87711 31.7379 12.2969 33.1336 15.1959C34.5057 18.0469 35.0734 21.2094 34.7659 24.3719C34.6713 25.2584 34.2691 26.049 33.5831 26.624C32.968 27.0792 32.2347 27.3427 31.4777 27.3427Z" fill="#FDCB42"/>
<path d="M63.768 12.2H67.608V24.896C67.608 26.32 67.224 27.408 66.456 28.16C65.688 28.912 64.592 29.288 63.168 29.288C62.512 29.288 61.88 29.176 61.272 28.952C60.68 28.712 60.256 28.432 60 28.112L61.248 25.184C61.712 25.52 62.176 25.688 62.64 25.688C63.392 25.688 63.768 25.192 63.768 24.2V12.2ZM77.5734 18.2H81.1734V29H77.5734V27.92C76.8534 28.832 75.8214 29.288 74.4774 29.288C73.4854 29.288 72.6294 28.92 71.9094 28.184C71.2054 27.432 70.8534 26.368 70.8534 24.992V18.2H74.4534V24.224C74.4534 24.736 74.5654 25.152 74.7894 25.472C75.0294 25.776 75.3814 25.928 75.8454 25.928C76.4694 25.928 77.0454 25.6 77.5734 24.944V18.2ZM89.196 25.808C89.196 25.52 88.524 25.216 87.18 24.896C86.7 24.784 86.268 24.656 85.884 24.512C85.516 24.368 85.132 24.168 84.732 23.912C84.332 23.656 84.02 23.32 83.796 22.904C83.588 22.472 83.484 21.984 83.484 21.44C83.484 20.352 83.876 19.496 84.66 18.872C85.444 18.232 86.46 17.912 87.708 17.912C89.612 17.912 91.124 18.4 92.244 19.376L90.9 21.92C89.908 21.248 88.916 20.912 87.924 20.912C87.684 20.912 87.484 20.96 87.324 21.056C87.164 21.152 87.084 21.264 87.084 21.392C87.084 21.584 87.276 21.744 87.66 21.872C88.06 22 88.54 22.136 89.1 22.28C89.66 22.408 90.22 22.584 90.78 22.808C91.34 23.016 91.812 23.36 92.196 23.84C92.596 24.32 92.796 24.92 92.796 25.64C92.796 26.744 92.372 27.632 91.524 28.304C90.692 28.96 89.564 29.288 88.14 29.288C87.084 29.288 86.068 29.072 85.092 28.64C84.116 28.176 83.492 27.728 83.22 27.296L84.924 24.944C85.26 25.28 85.788 25.592 86.508 25.88C87.244 26.152 87.868 26.288 88.38 26.288C88.924 26.288 89.196 26.128 89.196 25.808ZM94.5956 24.896V15.2H98.1956V18.2H101.196V21.56H98.1956V24.728C98.1956 25.528 98.4276 25.928 98.8916 25.928C99.4036 25.928 99.9396 25.72 100.5 25.304L101.58 28.064C100.652 28.88 99.4436 29.288 97.9556 29.288C96.7876 29.288 95.9316 28.928 95.3876 28.208C94.8596 27.472 94.5956 26.368 94.5956 24.896ZM104.873 29H104.465V12.2H104.801C105.521 12.2 106.321 12.192 107.201 12.176C107.537 12.176 107.905 12.176 108.305 12.176C108.721 12.16 109.041 12.152 109.265 12.152C109.489 12.136 109.657 12.128 109.769 12.128C112.921 12.128 115.281 12.912 116.849 14.48C118.417 16.048 119.201 18.04 119.201 20.456C119.201 22.936 118.361 24.992 116.681 26.624C115.017 28.24 112.649 29.048 109.577 29.048C108.953 29.048 108.257 29.04 107.489 29.024C106.721 29.008 105.849 29 104.873 29ZM109.721 15.728C109.097 15.728 108.625 15.752 108.305 15.8V25.4C108.753 25.432 109.217 25.448 109.697 25.448C111.393 25.448 112.721 25.008 113.681 24.128C114.641 23.248 115.121 22.024 115.121 20.456C115.121 18.968 114.633 17.808 113.657 16.976C112.681 16.144 111.369 15.728 109.721 15.728ZM122.094 27.68C121.006 26.592 120.462 25.232 120.462 23.6C120.462 21.968 121.006 20.608 122.094 19.52C123.182 18.448 124.638 17.912 126.462 17.912C128.286 17.912 129.734 18.448 130.806 19.52C131.91 20.592 132.462 21.952 132.462 23.6C132.462 25.248 131.91 26.608 130.806 27.68C129.734 28.752 128.286 29.288 126.462 29.288C124.638 29.288 123.182 28.752 122.094 27.68ZM124.302 23.6C124.302 24.272 124.502 24.832 124.902 25.28C125.318 25.712 125.838 25.928 126.462 25.928C127.102 25.928 127.622 25.72 128.022 25.304C128.422 24.872 128.622 24.304 128.622 23.6C128.622 22.928 128.414 22.376 127.998 21.944C127.598 21.496 127.086 21.272 126.462 21.272C125.838 21.272 125.318 21.488 124.902 21.92C124.502 22.336 124.302 22.896 124.302 23.6Z" fill="#03A0E8"/>
</svg>
