<svg width="448" height="698" viewBox="0 0 448 698" fill="none" xmlns="http://www.w3.org/2000/svg">
<g clip-path="url(#clip0_17713_43734)">
<rect width="448" height="708" transform="translate(0 -7)" fill="white"/>
<g clip-path="url(#clip1_17713_43734)">
<path fill-rule="evenodd" clip-rule="evenodd" d="M416.519 390.097C437.365 407.961 441.535 436.939 444.457 464.246C447.568 493.331 452.433 525.714 433.405 547.947C414.234 570.349 381.384 572.95 351.918 572.377C325.197 571.858 301.092 561.163 279.848 544.961C256.476 527.136 229.56 507.209 227.972 477.846C226.39 448.58 250.812 425.712 272.326 405.79C291.211 388.303 314.07 377.217 339.648 374.434C366.68 371.492 395.881 372.412 416.519 390.097Z" fill="#F0F0F0"/>
<path fill-rule="evenodd" clip-rule="evenodd" d="M219.586 144.621C244.556 156.45 269.425 170.354 283.533 194.116C297.085 216.941 289.097 245.051 294.63 271.016C302.631 308.562 342.086 346.343 323.078 379.7C304.765 411.838 254.083 397.53 217.978 405.533C185.551 412.721 153.675 435.793 122.574 424.146C91.5934 412.543 77.2873 377.574 63.2789 347.598C51.3115 321.989 47.4894 294.395 48.7407 266.151C49.9635 238.551 56.4596 212.121 70.3394 188.233C85.847 161.543 102.618 131.097 132.24 122.441C161.8 113.803 191.758 131.437 219.586 144.621Z" fill="#ABE5FF"/>
<path d="M1.91771 398.861L1.36206 398.154C1.63988 397.93 28.6068 375.638 40.616 366.832C91.8521 329.415 144.227 306.701 196.287 299.336C237.774 293.432 280.07 297.369 319.749 310.827C388.3 333.827 429.982 377.463 430.368 377.902L429.713 378.51C429.301 378.072 387.78 334.587 319.426 311.659C279.881 298.253 237.729 294.338 196.386 300.231C144.486 307.578 92.2554 330.229 41.1447 367.556C29.1445 376.363 2.18657 398.637 1.91771 398.861Z" fill="white"/>
<path d="M1.93563 376.443L1.36206 375.781C1.613 375.557 27.0026 352.933 64.4909 329.128C99.1025 307.158 151.423 279.648 204.057 273.419C271.103 265.49 329.051 282.323 365.859 297.841C405.731 314.657 430.081 333.638 430.323 333.782L429.767 334.489C429.534 334.301 405.256 315.418 365.482 298.692C328.783 283.218 271.013 266.474 204.165 274.35C151.665 280.507 99.4878 307.945 64.9928 329.871C27.5224 353.631 2.18657 376.219 1.93563 376.443Z" fill="white"/>
<path d="M1.94424 353.954L1.31689 353.318C1.56783 353.077 26.4107 329.218 63.9259 303.999C98.5823 280.731 151.494 251.467 206.737 244.379C261.458 237.295 317.083 243.622 368.807 262.814C407.478 277.267 430.054 294.065 430.278 294.235L429.74 294.951C429.516 294.781 407.021 278.046 368.457 263.629C316.878 244.498 261.41 238.192 206.844 245.256C151.781 252.326 99.0035 281.5 64.4278 304.724C26.9574 329.907 2.18622 353.721 1.94424 353.954Z" fill="white"/>
<path d="M1.94444 331.813L1.32605 331.16C21.531 312.409 42.9034 294.953 65.3153 278.896C99.6042 254.303 150.159 223.58 196.278 216.877C266.182 206.756 326.067 217.817 363.994 228.869C405.094 240.853 430 255.431 430.251 255.574L429.794 256.344C429.543 256.201 404.7 241.667 363.708 229.72C325.87 218.694 266.137 207.669 196.404 217.763C150.473 224.44 100.052 255.091 65.8351 279.621C43.4544 295.652 22.1147 313.084 1.94444 331.813Z" fill="white"/>
<path d="M1.9446 310.111L1.36206 309.467C22.5461 289.993 45.0006 271.945 68.5776 255.44C104.973 229.926 159.148 197.86 210.626 190.03C278.218 179.774 334.303 188.24 369.47 197.126C407.568 206.765 429.982 218.999 430.197 219.124L429.767 219.902C429.543 219.786 407.21 207.597 369.21 197.986C334.142 189.117 278.192 180.687 210.761 190.916C159.453 198.719 105.403 230.713 69.0974 256.174C45.5451 272.653 23.1117 290.671 1.9446 310.111Z" fill="white"/>
<path d="M1.96226 434.613L1.29907 434.014C1.53209 433.763 24.4571 408.956 61.2464 383.092C95.2126 359.198 148.277 329.468 208.224 323.508C240.337 320.212 272.782 324.07 303.222 334.802C327.572 343.384 351.017 356.388 372.894 373.472C410.131 402.539 442.803 444.687 443 445L442.5 445.5C442.303 445.196 409.45 403.13 372.284 374.152C350.479 357.148 327.133 344.181 302.873 335.67C272.563 324.992 240.26 321.153 208.287 324.43C148.537 330.372 95.6159 360.021 61.7393 383.844C25.0575 409.636 2.18632 434.372 1.96226 434.613Z" fill="white"/>
<path d="M152.391 275.46H129.412V322.336H152.391V275.46Z" fill="#000850"/>
<path d="M156.487 550.891C205.491 550.891 245.211 547.652 245.211 543.651C245.211 539.651 205.482 536.411 156.487 536.411C107.491 536.411 67.762 539.651 67.762 543.651C67.762 547.652 107.482 550.891 156.487 550.891Z" fill="#000850"/>
<path d="M204.855 313.78C204.855 313.78 211.89 314.55 214.534 315.069C218.312 315.784 221.89 317.311 225.019 319.543L224.562 324.6L211.764 330.032L204.855 313.78Z" fill="#D56074"/>
<path d="M193.634 338.113C193.634 338.113 208.216 331.482 213.118 329.486C215.806 328.394 224.562 324.635 224.562 324.635L223.666 338.059L202.829 342.829L193.634 338.113Z" fill="#000850"/>
<path d="M289.376 510.915C289.376 510.915 290.577 514.495 290.9 515.613C291.222 516.732 291.679 519.435 291.679 519.435C291.679 519.435 300.794 519.793 303.698 518.96C306.232 518.191 308.392 516.515 309.765 514.253L308.34 511.363L307.247 508.4L289.376 510.915Z" fill="#FFA79C"/>
<path d="M228.855 532.25L201.216 423.758L190.829 425.235L218.611 534.63C218.942 535.706 219.608 536.649 220.512 537.32C221.417 537.991 222.512 538.356 223.639 538.362C224.326 538.366 225.006 538.234 225.641 537.973C226.276 537.713 226.853 537.329 227.338 536.845C227.824 536.361 228.209 535.785 228.471 535.152C228.733 534.518 228.866 533.839 228.864 533.154C228.864 532.832 228.801 532.509 228.801 532.259L228.855 532.25Z" fill="#E44233"/>
<path d="M148.277 537.271L155.635 421.762L145.311 419.972L137.764 536.438C137.737 537.689 138.16 538.909 138.958 539.874C139.756 540.839 140.874 541.486 142.109 541.696C143.345 541.907 144.615 541.667 145.687 541.02C146.76 540.374 147.565 539.364 147.954 538.174C148.082 537.893 148.149 537.588 148.152 537.279L148.277 537.271Z" fill="#E44233"/>
<path d="M89.7638 534.827L120.925 409.072L112.214 401.286L79.6366 532.187C79.4228 533.294 79.5683 534.441 80.0518 535.46C80.5354 536.478 81.3318 537.317 82.3253 537.852C83.5406 538.496 84.9618 538.634 86.2784 538.235C87.5949 537.836 88.6998 536.932 89.3515 535.722C89.486 535.472 89.6114 535.15 89.7459 534.89L89.7638 534.827Z" fill="#E44233"/>
<path d="M117.564 422.72L108.02 418.245L112.214 401.242L120.925 409.027L117.564 422.72Z" fill="#000850"/>
<path d="M154.793 434.318L144.406 432.528L145.248 419.847L155.572 421.637L154.793 434.318Z" fill="#000850"/>
<path d="M193.697 436.824L203.959 434.506L201.18 423.767L190.793 422.317L190.282 425.279L193.697 436.824Z" fill="#000850"/>
<path d="M107.5 310.818C107.5 310.818 88.4731 329.164 89.8264 359.144C91.1796 389.124 114.409 404.669 114.409 404.669C114.409 404.669 130.281 421.476 173.245 425.333C210.734 428.689 241.76 407.497 241.76 407.497L224.598 372.729L107.5 310.818Z" fill="#E44233"/>
<path d="M347.298 448.207L350.73 452.593L353.571 456.271C353.571 456.271 360.84 451.796 364.192 448.44C366.468 446.122 366.145 442.543 366.145 442.543C364.882 441.661 363.67 440.708 362.516 439.688C361.44 438.685 360.517 436.019 360.517 436.019L347.298 448.207Z" fill="#FFA79C"/>
<path d="M225.503 396.257L235.89 395.747L238.991 402.011C238.991 402.011 252.255 441.603 257.552 454.928C263.287 469.354 275.646 515.488 275.646 515.488L327.465 503.952C327.465 503.952 311.683 460.432 304.28 442.614C296.877 424.796 286.589 401.537 286.589 401.537L280.979 370.957L256.718 357.632L229.626 370.957L220.592 384.864L225.503 396.257Z" fill="#331C6A"/>
<path d="M281.875 338.892L222.026 350.24L210.519 349.416L193.867 347.904L157.356 347.966L140.193 345.201L121.74 354.857C121.74 354.857 121.875 361.363 124.581 365.543C126.58 368.702 130.452 371.217 132.71 372.819C148.259 383.96 202.068 404.955 202.068 404.955L225.548 396.257C225.548 396.257 241.097 374.304 249.101 370.957C260.455 366.187 267.804 370.635 271.165 375.136C275.422 380.936 286.643 401.537 286.643 401.537L315.321 429.995L341.562 456.271L370.537 431.83C370.537 431.83 342.548 394.771 328.083 380.479C315.734 368.272 281.839 338.892 281.839 338.892" fill="#000850"/>
<path d="M117.636 338.892C117.636 338.892 118.084 346.356 118.989 349.577C119.491 351.492 120.409 353.273 121.678 354.795C121.678 354.795 129.681 359.43 142.649 360.263C152.328 360.907 167.555 354.338 167.555 354.338L117.636 338.892Z" fill="white"/>
<path d="M209.972 303.354C211.375 305.682 213.041 307.841 214.937 309.789C218.038 313.002 225.118 319.57 225.118 319.57L237.764 290.539L231.266 276.695L205.097 294.781L209.972 303.354Z" fill="#FFA79C"/>
<path d="M195.893 347.519C194.577 346.492 193.498 345.195 192.729 343.716L204.532 340.691C202.67 339.465 200.574 338.638 198.376 338.263C196.178 337.887 193.925 337.97 191.761 338.507C189.67 339.259 187.68 340.266 185.837 341.505C184.735 341.049 167.259 333.827 157.893 330.713C153.762 329.299 141.959 320.287 141.959 320.287C141.959 320.287 136.859 316.358 136.017 314.487C135.175 312.617 135.309 308.223 135.569 306.12C135.892 303.283 136.922 297.618 137.567 294.853C138.275 291.756 140.991 282.619 140.991 282.619L127.808 282.556L110.601 277.786C110.601 277.786 107.634 294.531 107.374 302.773C107.052 313.78 108.602 320.797 110.601 326.462C112.339 331.482 115.7 338.758 123.147 343.787C131.118 348.925 140.106 352.283 149.496 353.632C166.156 355.77 185.981 352.799 185.981 352.799C188.566 353.743 191.294 354.242 194.046 354.276C198.527 354.213 204.801 348.996 204.801 348.996C204.801 348.996 197.183 348.352 195.893 347.519Z" fill="#FFA79C"/>
<path d="M111.246 273.858L110.663 277.724C110.663 277.724 121.185 281.393 124.796 282.1C132.02 283.451 141.054 282.619 141.054 282.619L145.633 280.829L111.246 273.858Z" fill="#000850"/>
<path d="M111.246 273.858C111.246 273.858 116.533 240.889 132.665 227.948C146.798 216.681 170.019 218.999 170.019 218.999L180.218 220.547C180.218 220.547 201.037 223.106 208.655 232.834C222.949 249.05 231.266 276.686 231.266 276.686L205.097 294.772L202.919 287.246C202.919 287.246 203.313 298.316 203.564 301.985C203.824 305.082 204.084 310.612 204.667 313.19C205.634 317.441 214.211 328.905 214.211 328.905L193.598 338.105C192.275 338.374 190.979 338.763 189.727 339.268C188.759 339.787 185.918 341.523 185.918 341.523L169.786 335.787C169.786 335.787 161.371 332.252 157.956 330.766C152.579 328.448 142.022 320.34 142.022 320.34C142.022 320.34 142.47 305.01 142.99 299.99C143.698 293.358 146.279 281.125 146.279 281.125C146.279 281.125 131.76 280.74 126.921 280.23C121.175 279.717 115.716 277.498 111.246 273.858Z" fill="white"/>
<path d="M171.077 209.539C168.986 208.948 167.056 207.892 165.431 206.452C164.546 205.648 163.893 204.622 163.538 203.482C163.184 202.341 163.141 201.126 163.414 199.964L166.354 194.871C166.354 194.871 163.665 192.473 164.812 189.618C165.968 186.933 169.222 186.933 169.222 186.933C169.222 186.933 167.823 182.307 171.847 179.774C176.024 177.152 180.585 179.774 180.585 179.774C180.585 179.774 185.066 176.141 188.786 176.534C195.131 177.223 195.955 181.707 195.955 181.707C195.955 181.707 201.064 179.309 203.77 180.928C207.355 183.094 205.563 186.951 205.563 186.951C205.563 186.951 207.965 192.321 204.093 195.677C202.841 196.709 201.351 197.413 199.758 197.725C198.165 198.038 196.519 197.949 194.97 197.467L171.077 209.539Z" fill="#000850"/>
<path d="M176.597 217.522L180.084 221.701C180.084 221.701 180.218 220.413 180.281 219.965C180.343 219.518 180.406 218.479 180.406 218.479L177.377 217.325L176.597 217.522Z" fill="#321D6A"/>
<path d="M183.068 219.804C183.068 219.804 182.674 226.212 181.903 228.914C181.598 229.917 179.429 231.232 178.425 231.232C167.985 231.232 164.884 223.661 164.884 223.661L171.31 209.074L173.702 202.433C173.702 202.433 171.91 201.538 172.546 197.493C172.699 196.491 173.783 192.016 177.027 192.016C177.924 192.016 179.277 194.701 179.277 194.701C181.502 195.582 183.846 196.131 186.231 196.33C188.4 196.482 194.826 196.401 194.826 196.401C194.826 196.401 197.138 213.307 190.488 218.408C187.863 220.421 183.068 219.804 183.068 219.804Z" fill="#FFA79C"/>
<path d="M185.882 206.586C185.882 206.586 188.4 208.045 189.332 208.438C190.686 209.065 193.356 208.617 193.356 208.617C193.356 208.617 192.738 212.403 189.933 212.484C189.037 212.484 187.666 211.141 187.146 210.371C186.305 209.29 185.859 207.955 185.882 206.586Z" fill="white"/>
<path d="M190.462 218.417C190.462 218.417 188.92 215.786 187.056 215.481C185.819 215.329 179.886 215.866 177.7 214.935C176.382 214.398 174.679 212.394 173.989 211.159C172.672 208.689 173.676 202.433 173.676 202.433L171.516 208.537C171.516 208.537 171.668 212.931 173.523 215.168C174.454 216.402 175.609 217.45 176.929 218.256C178.237 219.151 183.041 219.884 183.041 219.884C183.041 219.884 184.35 219.956 185.667 219.884C186.293 219.892 186.917 219.814 187.522 219.652C188.075 219.53 188.62 219.374 189.153 219.186C189.631 219.009 190.074 218.748 190.462 218.417Z" fill="#EA8B80"/>
<path d="M143.957 281.653C143.957 281.653 145.75 272.31 146.404 269.222C147.506 264.139 146.942 256.085 146.942 256.085C146.942 256.085 148.86 264.067 148.214 269.992C147.892 272.766 146.279 281.134 146.279 281.134L143.957 281.653Z" fill="#000850"/>
<path d="M204.308 280.167C204.505 271.155 208.655 260.863 208.655 260.863C208.655 260.863 204.416 268.918 203.636 274.761C203.247 277.467 203.008 280.191 202.919 282.923V287.255C202.919 287.255 204.371 292.964 205.097 294.781C206.19 297.466 210.743 304.571 210.743 304.571C210.743 304.571 204.228 283.424 204.308 280.167Z" fill="#000850"/>
<path d="M202.023 404.956C202.023 404.956 210.797 407.98 213.763 408.813C218.925 410.298 224.276 408.428 224.276 408.428C224.276 408.428 230.343 406.047 232.342 405.206C234.017 404.437 238.991 401.993 238.991 401.993L235.891 395.729L225.503 396.239L202.023 404.956Z" fill="#AD3362"/>
<path d="M204.855 349.067L221.954 350.481L281.83 338.847L286.67 331.437L222.474 344.709L192.792 343.671V347.796L200.347 349.729L204.855 349.067Z" fill="#3E2E92"/>
<path d="M222.474 344.754L221.954 350.481L281.83 338.847L286.67 331.437L222.474 344.754Z" fill="#311E70"/>
<path d="M192.792 343.716L223.702 335.795L222.474 344.745L192.792 343.716Z" fill="#7DB6F9"/>
<path d="M222.259 344.861L228.147 286.539L293.696 274.502L286.67 331.482L222.259 344.861Z" fill="#03A0E8"/>
<path d="M260.151 314.532C262.248 314.702 264.121 312.742 264.327 310.058C264.533 307.373 263.019 305.171 260.922 305.001C258.825 304.831 256.951 306.791 256.745 309.476C256.539 312.161 258.054 314.362 260.151 314.532Z" fill="white"/>
<path d="M331.324 232.619C333.367 232.619 335.363 232.014 337.061 230.881C338.759 229.748 340.082 228.137 340.864 226.253C341.645 224.368 341.849 222.295 341.45 220.295C341.051 218.295 340.066 216.458 338.622 215.016C337.177 213.575 335.336 212.594 333.333 212.197C331.33 211.8 329.254 212.006 327.367 212.787C325.481 213.569 323.869 214.892 322.736 216.588C321.602 218.285 320.998 220.279 321 222.319C321.002 225.051 322.091 227.671 324.027 229.603C325.963 231.534 328.588 232.619 331.324 232.619Z" fill="#FDCB42"/>
<path d="M419.5 516C421.181 516 422.825 515.501 424.223 514.567C425.621 513.633 426.711 512.305 427.354 510.751C427.997 509.197 428.165 507.488 427.836 505.839C427.508 504.19 426.697 502.675 425.508 501.487C424.318 500.299 422.803 499.49 421.154 499.162C419.504 498.835 417.795 499.005 416.242 499.649C414.689 500.294 413.362 501.384 412.429 502.783C411.496 504.182 410.999 505.826 411 507.507C411.002 509.76 411.898 511.921 413.492 513.513C415.086 515.105 417.247 516 419.5 516Z" fill="white"/>
<path d="M333 280.576L381.583 244L383.645 246.381L334.999 282.956L333 280.576Z" fill="#AAD3FF"/>
<path d="M297 196.092L307.755 164L309.439 164.644L298.622 196.745L297 196.092Z" fill="#AAD3FF"/>
<path d="M1.94444 289.25L1.32605 288.597C2.22226 287.765 90.4001 205.207 155.904 175.899C182.217 164.112 213.01 156.774 247.434 154.08C274.965 151.932 304.863 152.729 336.293 156.461C389.805 162.788 429.749 175.621 430.161 175.755L429.884 176.65C429.489 176.48 389.599 163.683 336.167 157.347C246.869 146.76 189.046 162.036 156.271 176.713C90.902 205.968 2.82272 288.418 1.94444 289.25Z" fill="white"/>
<path d="M1.93542 268.265L1.33496 267.602C1.98919 267.012 67.2331 208.465 91.0364 190.119C141.574 151.351 179.886 144.577 180.272 144.478L180.415 145.373C180.039 145.436 141.923 152.192 91.5831 190.809C67.8067 209.155 2.58965 267.683 1.93542 268.265Z" fill="white"/>
<path d="M2.12353 242.32L1.52307 241.658C2.06976 241.166 56.0125 192.303 80.004 174.279C116.444 146.841 126.302 144.657 126.705 144.576L126.885 145.471C126.786 145.471 116.686 147.798 80.5506 175.004C56.5861 192.992 2.67022 241.828 2.12353 242.32Z" fill="white"/>
<path d="M47.6362 201.811C48.554 201.81 49.4506 201.536 50.2129 201.026C50.9751 200.515 51.5688 199.791 51.9188 198.943C52.2688 198.096 52.3594 197.164 52.1793 196.266C51.9991 195.367 51.5563 194.542 50.9067 193.894C50.2571 193.247 49.4299 192.806 48.5296 192.628C47.6293 192.45 46.6964 192.542 45.8486 192.894C45.0008 193.245 44.2763 193.839 43.7666 194.601C43.2569 195.363 42.9849 196.259 42.9849 197.176C42.9849 197.785 43.1052 198.389 43.3391 198.952C43.573 199.515 43.9157 200.026 44.3477 200.457C44.7798 200.887 45.2926 201.229 45.8569 201.461C46.4211 201.693 47.0258 201.813 47.6362 201.811Z" fill="#AAD3FF"/>
<path d="M360.324 192.619C362.367 192.619 364.363 192.014 366.061 190.881C367.759 189.748 369.082 188.137 369.864 186.253C370.645 184.368 370.849 182.295 370.45 180.295C370.05 178.295 369.066 176.458 367.622 175.016C366.177 173.575 364.336 172.594 362.333 172.197C360.33 171.8 358.254 172.006 356.367 172.787C354.481 173.569 352.869 174.892 351.736 176.588C350.602 178.285 349.998 180.279 350 182.319C350.002 185.051 351.091 187.671 353.027 189.603C354.963 191.534 357.588 192.619 360.324 192.619Z" fill="#AAD3FF"/>
<path d="M301.43 509.787L288.175 474.509L282.825 464.361L277.439 450.364L265.716 414.379L260.115 399.711L250.696 382.591L247.424 380.103L241.294 377.231L241.68 376.416L247.935 379.361L251.431 382.081L260.921 399.335L266.559 414.075L278.29 450.06L283.64 463.994L288.991 474.142L302.272 509.474L301.43 509.787Z" fill="white"/>
<path d="M290.837 518.495L311.091 513.636C311.091 513.636 316.316 518.406 318.87 519.22C323.522 520.715 328.639 520.759 333.613 522.648C339.25 524.786 346.904 533.082 346.904 533.082L290.837 542.953C290.837 542.953 289.161 535.848 290.837 531.4C292.101 527.919 290.837 518.495 290.837 518.495Z" fill="#1B1241"/>
<path d="M311.261 526.549C310.846 526.427 310.471 526.196 310.173 525.882C309.876 525.568 309.667 525.18 309.568 524.759C309.388 524.034 309.568 522.969 311.199 521.538C312.718 520.558 314.413 519.88 316.191 519.542L317.141 519.399C317.49 517.609 318.404 514.521 319.444 513.367C320.815 511.783 322.132 511.318 323.486 511.828C323.834 512 324.137 512.252 324.371 512.563C324.604 512.874 324.761 513.235 324.83 513.617C325.003 514.297 325.018 515.006 324.874 515.692C324.729 516.378 324.429 517.021 323.997 517.573C322.84 519.023 319.677 519.56 317.535 519.873C317.546 519.998 317.546 520.124 317.535 520.249L317.472 520.687C317.302 522.146 317.033 524.571 315.778 525.69C315.308 526.149 314.737 526.492 314.111 526.692C313.173 526.971 312.167 526.921 311.261 526.549ZM316.289 520.231C314.588 520.52 312.965 521.157 311.521 522.101C310.356 523.041 309.872 523.972 310.034 524.786C310.132 525.113 310.309 525.41 310.55 525.652C310.791 525.894 311.087 526.073 311.414 526.173C312.091 526.429 312.827 526.49 313.537 526.347C314.247 526.205 314.903 525.865 315.429 525.368C316.531 524.392 316.782 522.084 316.961 520.67L317.033 520.231C317.033 520.168 317.033 520.079 317.033 520.016C316.773 520.038 316.52 520.111 316.289 520.231ZM319.874 513.841C318.978 514.844 318.082 517.573 317.696 519.461C319.793 519.166 322.661 518.674 323.656 517.367C324.037 516.878 324.299 516.308 324.422 515.701C324.544 515.094 324.525 514.466 324.364 513.868C324.306 513.568 324.184 513.284 324.006 513.035C323.829 512.786 323.599 512.579 323.333 512.427C322.204 511.962 321.057 512.427 319.892 513.841H319.874Z" fill="white"/>
<path d="M329.159 521.377L328.191 524.84L330.315 525.153L331.274 521.896L329.159 521.377Z" fill="white"/>
<path d="M325.789 520.759L324.893 524.339L326.927 524.715L327.752 521.198L325.789 520.759Z" fill="white"/>
<path d="M322.115 519.864L321.102 523.73L323.235 524.169L324.023 520.321L322.115 519.864Z" fill="white"/>
<path d="M290.792 542.944L291.706 547.097L348.167 537.226L346.859 533.073L290.792 542.944Z" fill="#7DB6F9"/>
<path d="M290.837 531.4L304.755 540.501L290.837 542.953C290.837 542.953 289.985 539.463 289.851 537.951C289.655 535.72 289.993 533.474 290.837 531.4Z" fill="#FDCB42"/>
<path d="M350.587 454.284L367.015 441.531C367.015 441.531 373.745 443.724 376.416 443.42C381.264 442.874 385.952 440.815 391.257 440.484C397.28 440.117 407.676 444.538 407.676 444.538L360.643 476.568C360.643 476.568 356.162 470.778 355.875 466.034C355.669 462.338 350.587 454.284 350.587 454.284Z" fill="#1B1241"/>
<path d="M372.562 453.21C372.139 453.269 371.708 453.218 371.31 453.061C370.913 452.904 370.563 452.647 370.295 452.315C369.838 451.724 369.542 450.659 370.456 448.735C371.439 447.217 372.705 445.902 374.184 444.86L374.991 444.341C374.561 442.551 374.139 439.383 374.606 437.898C375.206 435.893 376.21 434.927 377.653 434.837C378.036 434.85 378.411 434.951 378.748 435.133C379.085 435.314 379.376 435.572 379.597 435.884C380.042 436.428 380.355 437.067 380.511 437.752C380.666 438.437 380.66 439.149 380.494 439.831C380.045 441.621 377.375 443.411 375.555 444.583C375.605 444.698 375.644 444.818 375.672 444.941L375.797 445.37C376.246 446.758 376.998 449.084 376.308 450.624C376.073 451.235 375.695 451.781 375.206 452.217C374.465 452.84 373.531 453.191 372.562 453.21ZM374.543 445.379C373.107 446.343 371.887 447.592 370.958 449.049C370.286 450.382 370.232 451.429 370.716 452.127C370.937 452.377 371.216 452.571 371.528 452.691C371.84 452.811 372.176 452.854 372.508 452.816C373.231 452.772 373.926 452.525 374.514 452.104C375.102 451.683 375.56 451.105 375.833 450.436C376.434 449.102 375.717 446.856 375.296 445.532L375.179 445.102C375.179 445.03 375.116 444.959 375.125 444.887C374.901 445.013 374.704 445.18 374.543 445.379ZM375.188 438.077C374.803 439.357 375.107 442.211 375.529 444.1C377.321 442.963 379.723 441.343 380.09 439.741C380.238 439.14 380.243 438.512 380.106 437.908C379.969 437.304 379.694 436.74 379.302 436.26C379.126 436.009 378.898 435.8 378.633 435.645C378.369 435.491 378.074 435.395 377.769 435.365C376.532 435.41 375.672 436.314 375.188 438.077Z" fill="white"/>
<path d="M386.731 441.111L387.278 444.69L389.348 444.109L388.873 440.744L386.731 441.111Z" fill="white"/>
<path d="M383.433 442.005L384.034 445.585L386.05 445.093L385.351 441.513L383.433 442.005Z" fill="white"/>
<path d="M379.705 442.677L380.386 446.623L382.51 446.14L381.614 442.31L379.705 442.677Z" fill="white"/>
<path d="M360.66 476.568L363.206 479.968L410.597 447.778L407.702 444.529L360.66 476.568Z" fill="#7DB6F9"/>
<path d="M355.902 466.034L372.338 468.62L360.687 476.567C360.687 476.567 358.474 473.739 357.721 472.415C356.616 470.462 355.993 468.275 355.902 466.034Z" fill="#FDCB42"/>
<path d="M354.997 444.941L296.618 378.868C289.045 370.358 268.495 348.271 264.354 348.271C261.244 348.271 225.387 356.397 223.845 356.746L166.945 383.728L152.283 380.005C152.167 380.005 149.344 379.217 145.275 373.74C142.837 370.447 138.706 360.227 138.526 359.788L139.36 359.457C139.405 359.565 143.626 370.009 145.992 373.203C149.837 378.394 152.48 379.146 152.507 379.155L166.847 382.797L223.621 355.887C225.154 355.538 261.119 347.376 264.381 347.376C269.678 347.376 294.503 375.119 297.317 378.278L355.696 444.35L354.997 444.941Z" fill="white"/>
<path d="M188.669 199.328C187.659 199.009 186.598 198.884 185.541 198.961C185.066 199.024 183.57 199.507 182.996 199.632L182.656 198.559C182.898 198.559 184.672 197.852 185.389 197.762C186.624 197.711 187.859 197.843 189.055 198.156L188.669 199.328Z" fill="#5F000F"/>
<path d="M194.943 200.492C194.412 200.269 193.863 200.093 193.302 199.964L193.527 198.997C194.001 199.099 194.469 199.233 194.925 199.4L194.943 200.492Z" fill="#5F000F"/>
<path d="M190.462 204.286L193.258 204.554L191.08 198.889L191.896 198.522L194.584 205.574L190.426 205.19L190.462 204.286Z" fill="#5F000F"/>
<path d="M191.358 209.539C190.875 209.538 190.395 209.484 189.924 209.378C188.642 209.101 186.196 207.257 185.891 207.034L185.819 206.228C187.155 207.155 188.596 207.921 190.112 208.51C191.214 208.785 192.373 208.72 193.437 208.322L193.294 209.101C192.717 209.463 192.034 209.617 191.358 209.539Z" fill="#5F000F"/>
<ellipse cx="320" cy="551.5" rx="27" ry="2.5" fill="#000850"/>
</g>
</g>
<defs>
<clipPath id="clip0_17713_43734">
<rect width="448" height="708" fill="white" transform="translate(0 -7)"/>
</clipPath>
<clipPath id="clip1_17713_43734">
<rect width="491" height="494" fill="white" transform="translate(-19 100)"/>
</clipPath>
</defs>
</svg>
