<svg width="184" height="190" viewBox="0 0 184 190" fill="none" xmlns="http://www.w3.org/2000/svg">
<path d="M69.7992 156.176C67.9869 156.02 66.2059 155.5 64.6453 154.54C54.4579 148.8 46.144 140.376 40.3503 130.239C34.4815 119.913 31.5547 108.278 31.8385 96.4599C32.1223 84.6416 35.5775 73.0955 41.8229 63.074C48.0605 53.1437 56.7851 45.0792 67.103 39.7218C70.0684 38.1402 73.5587 37.8889 76.7582 38.8978C79.9577 39.9067 82.5869 42.2438 84.1568 45.2244C87.273 51.459 84.7961 59.0497 78.6763 62.2885C72.3674 65.6029 67.0208 70.4688 63.2114 76.5681C59.4019 82.6675 57.2438 89.7348 57.0791 96.9731C56.9145 104.211 58.7668 111.347 62.3361 117.621C65.8227 123.795 70.9435 129.008 77.1268 132.477C83.1289 135.929 85.2968 143.643 81.8498 149.774C80.2326 152.664 77.4843 154.907 74.219 155.729C72.8129 156.159 71.249 156.3 69.7992 156.176ZM64.8734 154.009C64.8734 154.009 64.964 154.017 64.8734 154.009C64.964 154.017 64.8734 154.009 64.8734 154.009Z" fill="#8CD8FB"/>
<path d="M91.3053 162.978C88.2244 162.714 85.2498 162.275 82.2081 161.555C73.7015 159.632 65.7965 156.016 58.6665 150.814C56.0061 148.841 54.1644 145.838 53.6303 142.487C53.0963 139.136 53.9371 135.72 55.909 132.951C60.0418 127.339 67.9081 126.086 73.493 130.145C77.7891 133.268 82.6165 135.518 87.8095 136.698C93.0025 137.878 98.2815 138.056 103.564 137.132C110.335 135.877 116.877 140.477 118.111 147.377C118.736 150.735 117.978 154.25 116.014 156.928C114.132 159.704 111.053 161.551 107.803 162.191C102.423 163.198 96.8327 163.453 91.3053 162.978ZM107.956 161.469L107.866 161.461C107.858 161.553 107.956 161.469 107.956 161.469ZM103.864 137.892C103.773 137.884 103.773 137.884 103.864 137.892C103.773 137.884 103.773 137.884 103.864 137.892ZM73.0758 130.752C73.1664 130.76 73.1664 130.76 73.0758 130.752C73.1664 130.76 73.1664 130.76 73.0758 130.752Z" fill="#5FC8F8"/>
<path d="M105.432 162.171C103.257 161.984 101.129 161.251 99.3202 159.994C96.5613 158.105 94.629 155.093 94.0949 151.742C92.8535 144.934 97.3441 138.342 104.214 137.004C111.725 135.629 118.601 132.088 124.07 126.865C129.538 121.642 133.493 114.913 135.403 107.549C137.167 100.815 144 96.7193 150.619 98.2971C153.925 99.1316 156.759 101.211 158.427 104.108C160.186 107.013 160.622 110.447 159.789 113.772C156.739 125.904 150.325 136.829 141.29 145.326C132.246 153.914 120.983 159.649 108.741 161.904C107.705 162.274 106.61 162.272 105.432 162.171Z" fill="#8CD8FB"/>
<path d="M147.301 119.953C146.847 119.914 146.485 119.883 146.04 119.753C139.216 118.433 134.764 111.809 135.992 104.937C137.343 97.7087 136.617 90.2104 134.016 83.2857C131.333 76.262 126.743 70.1764 120.827 65.7213C114.911 61.2662 107.85 58.457 100.419 57.8195L100.329 57.8117C92.989 57.182 85.7491 58.5804 79.1684 61.8715C72.9657 65.0115 65.4278 62.4368 62.2209 56.1945C60.7416 53.2217 60.4951 49.712 61.5015 46.4934C62.5079 43.2749 64.8344 40.6286 67.8826 39.1459C78.5552 33.9108 90.5258 31.633 102.487 32.6592C102.577 32.667 102.577 32.667 102.668 32.6748C114.81 33.7166 126.383 38.1981 136.067 45.547C145.752 52.8959 153.208 62.8078 157.608 74.2935C161.933 85.5891 163.075 97.8052 160.865 109.734C160.214 113.074 158.415 115.95 155.6 117.911C153.095 119.441 150.2 120.202 147.301 119.953Z" fill="#ABE5FF"/>
<path d="M99.3013 99.9235C98.5232 100.696 97.2685 100.698 96.4881 99.9277L76.2987 80.0126C73.9624 77.708 70.208 77.708 67.8717 80.0126L62.4824 85.3287C60.1004 87.6783 60.1004 91.5222 62.4824 93.8718L93.6804 124.646C96.0209 126.955 99.7835 126.95 102.118 124.635L166.036 61.268C168.407 58.9166 168.403 55.0809 166.025 52.7355L160.637 47.4206C158.295 45.1111 154.531 45.1167 152.197 47.4332L99.3013 99.9235Z" fill="#03A0E8" stroke="white" stroke-width="4"/>
</svg>
